<svg width="72" height="77" viewBox="0 0 72 77" fill="none" xmlns="http://www.w3.org/2000/svg">
<path d="M36.144 48.288C35.312 48.288 34.672 48.064 34.224 47.616C33.776 47.136 33.552 46.48 33.552 45.648V38.496H26.544C25.744 38.496 25.12 38.288 24.672 37.872C24.224 37.424 24 36.8 24 36C24 35.2 24.224 34.592 24.672 34.176C25.12 33.728 25.744 33.504 26.544 33.504H33.552V26.64C33.552 25.776 33.776 25.12 34.224 24.672C34.672 24.224 35.328 24 36.192 24C37.024 24 37.648 24.224 38.064 24.672C38.512 25.12 38.736 25.776 38.736 26.64V33.504H45.744C46.576 33.504 47.2 33.728 47.616 34.176C48.064 34.592 48.288 35.2 48.288 36C48.288 36.8 48.064 37.424 47.616 37.872C47.2 38.288 46.576 38.496 45.744 38.496H38.736V45.648C38.736 46.48 38.512 47.136 38.064 47.616C37.648 48.064 37.008 48.288 36.144 48.288Z" fill="#5DB6F2"/>
<rect x="0.5" y="0.5" width="71" height="76" rx="4.5" stroke="#9747FF" stroke-dasharray="10 5"/>
</svg>
