<svg width="72" height="77" viewBox="0 0 72 77" fill="none" xmlns="http://www.w3.org/2000/svg">
<path d="M37.776 42.7752C37.9024 42.6492 38.0083 42.5107 38.1011 42.3663L47.791 32.6763C48.7359 31.7306 48.7368 30.1974 47.791 29.2513C46.8453 28.3064 45.3126 28.3056 44.366 29.2513L36.0218 37.5964L27.6331 29.2091C26.6874 28.2638 25.1547 28.2634 24.2085 29.2091C23.7363 29.6827 23.4991 30.3019 23.5 30.9212C23.4991 31.5409 23.7363 32.1606 24.2094 32.6324L33.9415 42.3658C34.0343 42.5107 34.1411 42.6488 34.2684 42.7752C34.7518 43.2586 35.3877 43.4914 36.0218 43.4802C36.6549 43.4918 37.2926 43.2586 37.776 42.7752Z" fill="#AAAAAA"/>
<rect x="0.5" y="0.5" width="71" height="76" rx="4.5" stroke="#9747FF" stroke-dasharray="10 5"/>
</svg>
