<svg width="72" height="77" viewBox="0 0 72 77" fill="none" xmlns="http://www.w3.org/2000/svg">
<g clip-path="url(#clip0_139_1314)">
<path d="M36 21C32.0218 21 28.2064 22.5804 25.3934 25.3934C22.5804 28.2064 21 32.0218 21 36C21 39.9782 22.5804 43.7936 25.3934 46.6066C28.2064 49.4196 32.0218 51 36 51C39.9782 51 43.7936 49.4196 46.6066 46.6066C49.4196 43.7936 51 39.9782 51 36C51 32.0218 49.4196 28.2064 46.6066 25.3934C43.7936 22.5804 39.9782 21 36 21V21ZM42.5625 35.0625C42.8111 35.0625 43.0496 35.1613 43.2254 35.3371C43.4012 35.5129 43.5 35.7514 43.5 36C43.5 36.2486 43.4012 36.4871 43.2254 36.6629C43.0496 36.8387 42.8111 36.9375 42.5625 36.9375H31.7006L35.7262 40.9613C35.8134 41.0484 35.8826 41.1519 35.9297 41.2658C35.9769 41.3797 36.0012 41.5017 36.0012 41.625C36.0012 41.7483 35.9769 41.8703 35.9297 41.9842C35.8826 42.0981 35.8134 42.2016 35.7262 42.2887C35.6391 42.3759 35.5356 42.4451 35.4217 42.4922C35.3078 42.5394 35.1858 42.5637 35.0625 42.5637C34.9392 42.5637 34.8172 42.5394 34.7033 42.4922C34.5894 42.4451 34.4859 42.3759 34.3988 42.2887L28.7737 36.6637C28.6864 36.5767 28.6172 36.4732 28.5699 36.3593C28.5227 36.2454 28.4983 36.1233 28.4983 36C28.4983 35.8767 28.5227 35.7546 28.5699 35.6407C28.6172 35.5268 28.6864 35.4233 28.7737 35.3363L34.3988 29.7113C34.5748 29.5352 34.8135 29.4363 35.0625 29.4363C35.3115 29.4363 35.5502 29.5352 35.7262 29.7113C35.9023 29.8873 36.0012 30.126 36.0012 30.375C36.0012 30.624 35.9023 30.8627 35.7262 31.0387L31.7006 35.0625H42.5625Z" fill="#AAAAAA"/>
</g>
<rect x="0.5" y="0.5" width="71" height="76" rx="4.5" stroke="#9747FF" stroke-dasharray="10 5"/>
<defs>
<clipPath id="clip0_139_1314">
<rect width="30" height="30" fill="white" transform="translate(21 21)"/>
</clipPath>
</defs>
</svg>
