<svg width="72" height="77" viewBox="0 0 72 77" fill="none" xmlns="http://www.w3.org/2000/svg">
<path d="M44.75 34.7501H29.925L34.4625 29.3001C34.6747 29.0448 34.7768 28.7157 34.7463 28.3852C34.7158 28.0547 34.5553 27.7498 34.3 27.5376C34.0447 27.3254 33.7156 27.2233 33.3851 27.2538C33.0546 27.2843 32.7497 27.4448 32.5375 27.7001L26.2875 35.2001C26.2455 35.2598 26.2078 35.3224 26.175 35.3876C26.175 35.4501 26.175 35.4876 26.0875 35.5501C26.0308 35.6934 26.0012 35.846 26 36.0001C26.0012 36.1542 26.0308 36.3068 26.0875 36.4501C26.0875 36.5126 26.0875 36.5501 26.175 36.6126C26.2078 36.6778 26.2455 36.7404 26.2875 36.8001L32.5375 44.3001C32.655 44.4412 32.8022 44.5547 32.9686 44.6325C33.1349 44.7102 33.3164 44.7504 33.5 44.7501C33.7921 44.7507 34.0751 44.649 34.3 44.4626C34.4266 44.3577 34.5312 44.2288 34.6079 44.0834C34.6846 43.9379 34.7318 43.7788 34.7469 43.6151C34.762 43.4513 34.7447 43.2863 34.6959 43.1292C34.6471 42.9722 34.5678 42.8264 34.4625 42.7001L29.925 37.2501H44.75C45.0815 37.2501 45.3995 37.1184 45.6339 36.884C45.8683 36.6496 46 36.3316 46 36.0001C46 35.6686 45.8683 35.3506 45.6339 35.1162C45.3995 34.8818 45.0815 34.7501 44.75 34.7501Z" fill="#AAAAAA"/>
<rect x="0.5" y="0.5" width="71" height="76" rx="4.5" stroke="#9747FF" stroke-dasharray="10 5"/>
</svg>
