<svg width="72" height="77" viewBox="0 0 72 77" fill="none" xmlns="http://www.w3.org/2000/svg">
<g clip-path="url(#clip0_109_2130)">
<path d="M50.4577 23.061C50.1075 22.7106 49.6428 22.5 49.1491 22.5H22.8508C22.3572 22.5 21.8925 22.7106 21.5423 23.061C21.1921 23.4114 20.9996 23.885 21 24.3788L21.0192 47.145C21.0201 48.1656 21.8512 49.0113 22.8719 49.0113H49.128C50.1488 49.0113 50.9798 48.1701 50.9806 47.1495L50.9999 24.3843C51.0004 23.8905 50.8079 23.4114 50.4577 23.061ZM48.2113 46.0689C48.2113 46.1649 48.1335 46.2426 48.0375 46.2426H23.9713C23.8752 46.2426 23.7974 46.1649 23.7974 46.0689V30.4761C23.7974 30.3801 23.8753 30.3024 23.9713 30.3024H48.0374C48.1335 30.3024 48.2113 30.3801 48.2113 30.4761V46.0689H48.2113Z" fill="#AAAAAA"/>
<path d="M26.9855 37.2658H29.7541C30.4481 37.2658 31.0125 36.7012 31.0125 36.0073V33.7421C31.0125 33.0482 30.4481 32.4836 29.7541 32.4836H26.9855C26.2916 32.4836 25.7271 33.0482 25.7271 33.7421V36.0073C25.7271 36.7012 26.2915 37.2658 26.9855 37.2658Z" fill="#AAAAAA"/>
<path d="M34.6203 37.2658H37.3888C38.0827 37.2658 38.6473 36.7012 38.6473 36.0073V33.7421C38.6473 33.0482 38.0827 32.4836 37.3888 32.4836H34.6203C33.9264 32.4836 33.3618 33.0482 33.3618 33.7421V36.0073C33.3618 36.7012 33.9263 37.2658 34.6203 37.2658Z" fill="#AAAAAA"/>
<path d="M42.3385 37.2658H45.1071C45.801 37.2658 46.3656 36.7012 46.3656 36.0073V33.7421C46.3656 33.0482 45.801 32.4836 45.1071 32.4836H42.3385C41.6446 32.4836 41.0801 33.0482 41.0801 33.7421V36.0073C41.0801 36.7012 41.6445 37.2658 42.3385 37.2658Z" fill="#AAAAAA"/>
<path d="M26.9855 44.2292H29.7541C30.4481 44.2292 31.0125 43.6647 31.0125 42.9707V40.7055C31.0125 40.0116 30.4481 39.447 29.7541 39.447H26.9855C26.2916 39.447 25.7271 40.0116 25.7271 40.7055V42.9707C25.7271 43.6646 26.2915 44.2292 26.9855 44.2292Z" fill="#AAAAAA"/>
<path d="M34.6203 44.2292H37.3888C38.0827 44.2292 38.6473 43.6647 38.6473 42.9707V40.7055C38.6473 40.0116 38.0827 39.447 37.3888 39.447H34.6203C33.9264 39.447 33.3618 40.0116 33.3618 40.7055V42.9707C33.3618 43.6646 33.9263 44.2292 34.6203 44.2292Z" fill="#AAAAAA"/>
<path d="M42.3385 44.2292H45.1071C45.801 44.2292 46.3656 43.6647 46.3656 42.9707V40.7055C46.3656 40.0116 45.801 39.447 45.1071 39.447H42.3385C41.6446 39.447 41.0801 40.0116 41.0801 40.7055V42.9707C41.0801 43.6646 41.6445 44.2292 42.3385 44.2292Z" fill="#AAAAAA"/>
</g>
<rect x="0.5" y="0.5" width="71" height="76" rx="4.5" stroke="#9747FF" stroke-dasharray="10 5"/>
<defs>
<clipPath id="clip0_109_2130">
<rect width="30" height="30" fill="white" transform="translate(21 21)"/>
</clipPath>
</defs>
</svg>
