<svg width="32" height="32" viewBox="0 0 32 32" fill="none" xmlns="http://www.w3.org/2000/svg">
<g clip-path="url(#clip0_70_379)">
<path d="M30.6749 7.01603L26.9808 10.7101H24.2157H22.7012L22.026 11.3852L19.4581 13.9532L17.858 15.5532L16.505 16.9063C16.3026 17.1087 16.0374 17.2099 15.7721 17.2099C15.4972 17.2099 15.2219 17.101 15.0171 16.8834C14.628 16.4702 14.6688 15.8112 15.07 15.4098L16.416 14.0638L17.762 12.7178L17.9681 12.5117L20.5472 9.93256L21.2354 9.24441V7.76895V4.96475L22.5127 3.68749L24.9294 1.27074C24.9614 1.23879 24.9949 1.21088 25.0292 1.18486C25.0374 1.17865 25.0455 1.17257 25.0539 1.16665C25.0881 1.14236 25.1231 1.11995 25.159 1.10116C25.1619 1.09957 25.1649 1.09855 25.1679 1.09696C25.2019 1.07976 25.2365 1.0653 25.2715 1.05273C25.2803 1.04955 25.2889 1.04637 25.2978 1.04347C25.3349 1.03147 25.3725 1.02135 25.4104 1.01442C25.4156 1.0134 25.4209 1.01311 25.4261 1.0121C25.4603 1.00646 25.4944 1.00299 25.5286 1.00126C25.5375 1.00083 25.5461 1.00025 25.555 0.999959C25.5931 0.999236 25.6311 1.00039 25.6689 1.0043C25.6751 1.00502 25.6813 1.00618 25.6875 1.0069C25.7202 1.01095 25.7527 1.01687 25.7847 1.02439C25.7936 1.02656 25.8027 1.02844 25.8117 1.03075C25.8483 1.04044 25.8844 1.05186 25.9194 1.06574C25.9246 1.06776 25.9295 1.07036 25.9346 1.07239C25.9654 1.08525 25.9953 1.09986 26.0245 1.1159C26.0329 1.12053 26.0413 1.12501 26.0494 1.12978C26.0821 1.14901 26.1139 1.16968 26.1441 1.19267C26.1477 1.19542 26.151 1.1986 26.1545 1.20134C26.1814 1.22259 26.207 1.24544 26.2315 1.26972C26.2385 1.27652 26.2454 1.28331 26.2521 1.2904C26.2785 1.3183 26.3038 1.34736 26.3268 1.37873C26.3287 1.38133 26.3303 1.38422 26.3323 1.38697C26.3533 1.41632 26.3721 1.44725 26.3895 1.47935C26.3943 1.48817 26.3991 1.49699 26.4036 1.50609C26.4214 1.54166 26.4378 1.57838 26.451 1.61712L26.4526 1.62276C26.465 1.65991 26.4744 1.69866 26.4821 1.73841C26.4841 1.74897 26.486 1.75967 26.4877 1.77036C26.4944 1.81287 26.4994 1.85624 26.5004 1.90149L26.5746 5.37056L26.6488 5.37215L30.0435 5.44472C30.2267 5.44862 30.3872 5.50356 30.5215 5.59015C30.5728 5.62326 30.6215 5.6594 30.6644 5.70133C30.7265 5.76205 30.7794 5.83101 30.8219 5.90575C30.8644 5.98049 30.8968 6.06087 30.9177 6.14429C30.9913 6.4366 30.9257 6.76535 30.6749 7.01603ZM15.5893 8.25961C11.0648 8.25961 7.38384 11.9406 7.38384 16.465C7.38384 20.9895 11.0648 24.6705 15.5893 24.6705C20.1137 24.6705 23.7947 20.9895 23.7947 16.465C23.7947 15.349 23.5687 14.2855 23.1629 13.3152L20.1977 16.2804C20.2001 16.342 20.2045 16.403 20.2045 16.4652C20.2045 19.0102 18.1341 21.0805 15.5891 21.0805C13.0441 21.0805 10.9738 19.01 10.9738 16.4652C10.9738 13.9292 13.03 11.865 15.5625 11.8506L18.5856 8.82748C17.657 8.46143 16.6464 8.25961 15.5893 8.25961ZM28.5141 12.2435C28.1075 12.6502 27.5559 12.8786 26.9807 12.8786H25.3216C25.7354 13.9968 25.9632 15.2045 25.9632 16.4649C25.9632 22.1852 21.3096 26.8388 15.5893 26.8388C9.86898 26.8388 5.21532 22.1852 5.21532 16.4649C5.21532 10.7446 9.86898 6.09094 15.5893 6.09094C16.8091 6.09094 17.9793 6.30476 19.0669 6.69394V4.96475C19.0669 4.38966 19.2953 3.83798 19.702 3.43131L20.3879 2.74533C18.8849 2.21809 17.2702 1.92997 15.5891 1.92997C7.57453 1.93011 1.0542 8.45044 1.0542 16.465C1.0542 24.4796 7.57467 31.0001 15.5893 31.0001C23.6039 31.0001 30.1243 24.4796 30.1243 16.465C30.1243 14.7241 29.8155 13.0544 29.2516 11.5062L28.5141 12.2435Z" fill="#AAAAAA"/>
<path d="M30.6748 7.01603L26.9808 10.7101H24.2156H22.7011L22.026 11.3852L19.458 13.9532L17.8579 15.5532L16.5049 16.9063C16.3025 17.1087 16.0374 17.2099 15.7721 17.2099C15.4971 17.2099 15.2219 17.101 15.017 16.8834C14.628 16.4702 14.6687 15.8112 15.0699 15.4098L16.4159 14.0638L17.7619 12.7178L17.9681 12.5117L20.5472 9.93256L21.2353 9.24441V7.76895V4.96475L22.5126 3.68749L24.9294 1.27074C24.9613 1.23879 24.9948 1.21088 25.0291 1.18486C25.0373 1.17865 25.0454 1.17257 25.0538 1.16665C25.0881 1.14236 25.1231 1.11995 25.1589 1.10116C25.1618 1.09957 25.1649 1.09855 25.1679 1.09696C25.2019 1.07976 25.2364 1.0653 25.2714 1.05273C25.2802 1.04955 25.2889 1.04637 25.2977 1.04347C25.3349 1.03147 25.3725 1.02135 25.4103 1.01442C25.4155 1.0134 25.4209 1.01311 25.4261 1.0121C25.4602 1.00646 25.4943 1.00299 25.5286 1.00126C25.5374 1.00083 25.5461 1.00025 25.5549 0.999959C25.5931 0.999236 25.6311 1.00039 25.6688 1.0043C25.675 1.00502 25.6813 1.00618 25.6875 1.0069C25.7201 1.01095 25.7527 1.01687 25.7846 1.02439C25.7936 1.02656 25.8027 1.02844 25.8117 1.03075C25.8482 1.04044 25.8844 1.05186 25.9194 1.06574C25.9246 1.06776 25.9295 1.07036 25.9345 1.07239C25.9653 1.08525 25.9953 1.09986 26.0245 1.1159C26.0328 1.12053 26.0412 1.12501 26.0493 1.12978C26.082 1.14901 26.1138 1.16968 26.144 1.19267C26.1476 1.19542 26.151 1.1986 26.1544 1.20134C26.1813 1.22259 26.2069 1.24544 26.2315 1.26972C26.2384 1.27652 26.2454 1.28331 26.252 1.2904C26.2785 1.3183 26.3038 1.34736 26.3268 1.37873C26.3286 1.38133 26.3302 1.38422 26.3322 1.38697C26.3532 1.41632 26.372 1.44725 26.3895 1.47935C26.3943 1.48817 26.399 1.49699 26.4035 1.50609C26.4213 1.54166 26.4378 1.57838 26.4509 1.61712L26.4525 1.62276C26.465 1.65991 26.4744 1.69866 26.482 1.73841C26.484 1.74897 26.4859 1.75967 26.4877 1.77036C26.4943 1.81287 26.4994 1.85624 26.5004 1.90149L26.5745 5.37056L26.6487 5.37215L30.0435 5.44472C30.2266 5.44862 30.3871 5.50356 30.5214 5.59015C30.5727 5.62326 30.6214 5.6594 30.6644 5.70133C30.7264 5.76205 30.7793 5.83101 30.8218 5.90575C30.8643 5.98049 30.8967 6.06087 30.9177 6.14429C30.9913 6.4366 30.9256 6.76535 30.6748 7.01603Z" fill="#AAAAAA"/>
</g>
<defs>
<clipPath id="clip0_70_379">
<rect width="30" height="30" fill="white" transform="translate(1 1)"/>
</clipPath>
</defs>
</svg>
