<svg width="32" height="32" viewBox="0 0 32 32" fill="none" xmlns="http://www.w3.org/2000/svg">
<path d="M1 9C1 4.58172 4.58172 1 9 1H23C27.4183 1 31 4.58172 31 9V23C31 27.4183 27.4183 31 23 31H9C4.58172 31 1 27.4183 1 23V9Z" fill="white"/>
<g clip-path="url(#clip0_109_2963)">
<path d="M23.5314 12.9122L15.0907 21.3523C14.4656 21.9774 13.4517 21.9774 12.8261 21.3523L8.46896 16.9948C7.84368 16.3696 7.84368 15.3556 8.46896 14.7303C9.09436 14.1049 10.1082 14.1049 10.7333 14.7301L13.9587 17.9555L21.2666 10.6476C21.892 10.0222 22.906 10.0227 23.5311 10.6476C24.1563 11.2729 24.1563 12.2865 23.5314 12.9122Z" fill="#5DB6F2"/>
</g>
<path fill-rule="evenodd" clip-rule="evenodd" d="M23 5H9C6.79086 5 5 6.79086 5 9V23C5 25.2091 6.79086 27 9 27H23C25.2091 27 27 25.2091 27 23V9C27 6.79086 25.2091 5 23 5ZM9 1C4.58172 1 1 4.58172 1 9V23C1 27.4183 4.58172 31 9 31H23C27.4183 31 31 27.4183 31 23V9C31 4.58172 27.4183 1 23 1H9Z" fill="#5DB6F2"/>
<defs>
<clipPath id="clip0_109_2963">
<rect width="16" height="16" fill="white" transform="translate(8 8)"/>
</clipPath>
</defs>
</svg>
