<svg width="32" height="32" viewBox="0 0 32 32" fill="none" xmlns="http://www.w3.org/2000/svg">
<path d="M1 9C1 4.58172 4.58172 1 9 1H23C27.4183 1 31 4.58172 31 9V23C31 27.4183 27.4183 31 23 31H9C4.58172 31 1 27.4183 1 23V9Z" fill="white"/>
<path fill-rule="evenodd" clip-rule="evenodd" d="M23 5H9C6.79086 5 5 6.79086 5 9V23C5 25.2091 6.79086 27 9 27H23C25.2091 27 27 25.2091 27 23V9C27 6.79086 25.2091 5 23 5ZM9 1C4.58172 1 1 4.58172 1 9V23C1 27.4183 4.58172 31 9 31H23C27.4183 31 31 27.4183 31 23V9C31 4.58172 27.4183 1 23 1H9Z" fill="#5DB6F2"/>
</svg>
