<svg width="32" height="32" viewBox="0 0 32 32" fill="none" xmlns="http://www.w3.org/2000/svg">
<g clip-path="url(#clip0_156_2447)">
<path d="M6.38446 25.7595C5.72568 25.1007 5.39629 24.4166 5.39629 23.7072C5.42163 22.9724 5.76369 22.2756 6.42246 21.6168L12.0854 15.9539L6.53648 10.405C5.90304 9.77158 5.57366 9.1128 5.54832 8.42869C5.54832 7.71925 5.86504 7.0478 6.49847 6.41437C7.13191 5.78093 7.79068 5.47689 8.47479 5.50222C9.18424 5.50222 9.85568 5.81894 10.4891 6.45238L16.038 12.0013L21.4729 6.56639C22.157 5.88228 22.8538 5.54023 23.5632 5.54023C24.2727 5.54023 24.9694 5.88229 25.6536 6.5664C26.3123 7.22517 26.629 7.89661 26.6037 8.58072C26.6037 9.29017 26.2617 9.98694 25.5775 10.6711L20.1427 16.1059L25.6916 21.6548C26.3503 22.3136 26.6671 22.985 26.6417 23.6691C26.6671 24.3533 26.363 25.012 25.7296 25.6455C25.0961 26.2789 24.4247 26.5956 23.7152 26.5956C23.0565 26.5956 22.3977 26.2662 21.7389 25.6075L16.19 20.0586L10.5271 25.7215C9.86835 26.3802 9.17157 26.7223 8.43678 26.7476C7.75267 26.773 7.06857 26.4436 6.38446 25.7595Z" fill="#5DB6F2"/>
</g>
<defs>
<clipPath id="clip0_156_2447">
<rect width="30" height="30" fill="white" transform="translate(1 1)"/>
</clipPath>
</defs>
</svg>
