<svg width="72" height="77" viewBox="0 0 72 77" fill="none" xmlns="http://www.w3.org/2000/svg">
<path d="M48.7785 21H32.1956C31.0137 21 30.0522 21.9615 30.0522 23.1433V28.1738H32.0088V23.1433C32.0088 23.0403 32.0926 22.9565 32.1956 22.9565H48.7785C48.8815 22.9565 48.9653 23.0403 48.9653 23.1433V39.7263C48.9653 39.8293 48.8815 39.9131 48.7785 39.9131H43.9049V41.8696H48.7785C49.9603 41.8696 50.9218 40.9081 50.9218 39.7263V23.1433C50.9217 21.9615 49.9603 21 48.7785 21Z" fill="#AAAAAA"/>
<path d="M39.8049 30.1304H23.222C22.0401 30.1304 21.0786 31.0919 21.0786 32.2737V48.8567C21.0787 50.0386 22.0401 51.0001 23.222 51.0001H39.8049C40.9868 51.0001 41.9483 50.0386 41.9483 48.8568V32.2737C41.9484 31.0919 40.9867 30.1304 39.8049 30.1304ZM39.805 49.0435H23.222C23.1189 49.0435 23.0351 48.9597 23.0351 48.8568V32.2737C23.0351 32.1707 23.1189 32.0869 23.222 32.0869H39.8049C39.908 32.0869 39.9918 32.1707 39.9918 32.2737V48.8568H39.9919C39.9919 48.9597 39.908 49.0435 39.805 49.0435Z" fill="#AAAAAA"/>
<rect x="0.5" y="0.5" width="71" height="76" rx="4.5" stroke="#9747FF" stroke-dasharray="10 5"/>
</svg>
