<svg width="32" height="32" viewBox="0 0 32 32" fill="none" xmlns="http://www.w3.org/2000/svg">
<path d="M1.23096 28.0001C1.23096 29.354 2.33865 30.4617 3.6925 30.4617H29.7848C30.3387 30.4617 30.7694 30.0309 30.7694 29.477V27.754C30.7694 27.2001 30.3387 26.7693 29.7848 26.7693H5.84634C5.35403 26.7693 4.92326 26.3386 4.92326 25.8463V2.52319C4.92326 1.96934 4.4925 1.53857 3.93865 1.53857H2.21557C1.66173 1.53857 1.23096 1.96934 1.23096 2.52319V28.0001Z" fill="#AAAAAA"/>
<path d="M30.5846 8.67696C30.5846 7.63081 29.7846 6.83081 28.7384 6.83081C28.1846 6.83081 27.7538 7.07696 27.3846 7.38466L22.0923 12.677L18.4615 9.23081L18.4 9.16927C18.3384 9.10773 18.3384 9.10773 18.2769 9.04619C18.2154 9.04619 18.2154 8.98466 18.1538 8.98466C18.0923 8.92312 18.0307 8.92312 17.9692 8.86158C17.9077 8.86158 17.9077 8.80004 17.8461 8.80004C17.7846 8.80004 17.723 8.7385 17.6 8.7385C17.5384 8.7385 17.5384 8.7385 17.4769 8.67696C17.3538 8.67696 17.2307 8.61543 17.1077 8.61543C16.9846 8.61543 16.8615 8.61543 16.7384 8.67696C16.6769 8.67696 16.6769 8.67696 16.6154 8.7385C16.5538 8.7385 16.4307 8.80004 16.3692 8.80004C16.3077 8.80004 16.3077 8.86158 16.2461 8.86158C16.1846 8.92312 16.123 8.92312 16.0615 8.98466C16 8.98466 16 9.0462 15.9384 9.10773C15.8769 9.16927 15.8154 9.16927 15.7538 9.23081L8.73843 16.3077C8.3692 16.677 8.12305 17.1077 8.12305 17.6616C8.12305 18.7077 8.92305 19.5077 9.9692 19.5077C10.4 19.5077 10.8307 19.3231 11.1384 19.077L17.1692 13.1077L20.6769 16.5539C20.7384 16.6154 20.8 16.6154 20.8615 16.677C20.923 16.7385 20.923 16.7385 20.9846 16.8C21.0461 16.8616 21.1077 16.8616 21.1692 16.9231C21.2307 16.9231 21.2307 16.9847 21.2923 16.9847C21.3538 17.0462 21.4769 17.0462 21.5384 17.0462C21.6 17.0462 21.6 17.0462 21.6615 17.1077C21.7846 17.1077 21.9077 17.1693 22.0307 17.1693C22.1538 17.1693 22.2769 17.1693 22.4 17.1077C22.4615 17.1077 22.4615 17.1077 22.523 17.1077C22.5846 17.1077 22.6461 17.0462 22.7692 17.0462C22.8307 17.0462 22.8307 16.9847 22.8923 16.9847C22.9538 16.9847 23.0154 16.9231 23.0769 16.8616C23.1384 16.8616 23.1384 16.8 23.2 16.8L23.2615 16.7385L23.323 16.677C23.323 16.677 23.3846 16.6154 23.3846 16.6154L30.0307 10.0308C30.3384 9.66158 30.5846 9.23081 30.5846 8.67696Z" fill="#AAAAAA"/>
</svg>
