<svg width="72" height="77" viewBox="0 0 72 77" fill="none" xmlns="http://www.w3.org/2000/svg">
<circle cx="36" cy="36" r="15" fill="#5DB6F2"/>
<path d="M41.1362 34.8634C41.0555 34.7824 40.9668 34.7147 40.8744 34.6553L34.6728 28.4537C34.0676 27.849 33.0864 27.8485 32.4808 28.4537C31.8761 29.059 31.8756 30.0399 32.4808 30.6458L37.8217 35.9861L32.4538 41.3548C31.8489 41.9601 31.8486 42.941 32.4538 43.5466C32.7569 43.8488 33.1532 44.0006 33.5496 44C33.9462 44.0006 34.3428 43.8488 34.6447 43.546L40.8741 37.3174C40.9668 37.258 41.0552 37.1897 41.1362 37.1082C41.4455 36.7988 41.5945 36.3919 41.5873 35.9861C41.5948 35.5808 41.4455 35.1727 41.1362 34.8634Z" fill="white"/>
<rect x="0.5" y="0.5" width="71" height="76" rx="4.5" stroke="#9747FF" stroke-dasharray="10 5"/>
</svg>
