<svg width="72" height="77" viewBox="0 0 72 77" fill="none" xmlns="http://www.w3.org/2000/svg">
<path d="M37.2499 27.25V24.75H47.2499V34.75H44.7499V29.0178L38.045 35.7227C37.5569 36.2109 36.7654 36.2109 36.2772 35.7227C35.7891 35.2345 35.7891 34.4431 36.2772 33.9549L42.9821 27.25H37.2499Z" fill="#AAAAAA"/>
<path fill-rule="evenodd" clip-rule="evenodd" d="M27.25 37.25C25.8693 37.25 24.75 38.3693 24.75 39.75V44.75C24.75 46.1307 25.8693 47.25 27.25 47.25H32.25C33.6307 47.25 34.75 46.1307 34.75 44.75V39.75C34.75 38.3693 33.6307 37.25 32.25 37.25H27.25ZM27.25 39.75V44.75H32.25V39.75H27.25Z" fill="#AAAAAA"/>
<rect x="0.5" y="0.5" width="71" height="76" rx="4.5" stroke="#9747FF" stroke-dasharray="10 5"/>
</svg>
