<svg width="32" height="32" viewBox="0 0 32 32" fill="none" xmlns="http://www.w3.org/2000/svg">
<path d="M28.5998 11.6751C27.4417 12.206 26.1488 12.3698 24.8949 12.1445C23.6409 11.9193 22.4859 11.3156 21.5851 10.4148C20.6842 9.5139 20.0806 8.35893 19.8553 7.10499C19.63 5.85104 19.7938 4.55819 20.3248 3.40007C17.4633 2.41066 14.351 2.42072 11.496 3.4286C8.64104 4.43649 6.21217 6.38264 4.6061 8.94919C3.00003 11.5158 2.31166 14.5511 2.65343 17.5594C2.9952 20.5677 4.3469 23.3712 6.48778 25.5121C8.62865 27.6529 11.4322 29.0046 14.4405 29.3464C17.4488 29.6882 20.4841 28.9998 23.0506 27.3937C25.6172 25.7877 27.5634 23.3588 28.5712 20.5038C29.5791 17.6489 29.5892 14.5365 28.5998 11.6751V11.6751ZM15.8164 24.1751C15.5445 24.1751 15.2786 24.0944 15.0525 23.9433C14.8264 23.7923 14.6502 23.5775 14.5461 23.3263C14.442 23.075 14.4148 22.7985 14.4679 22.5318C14.5209 22.2651 14.6519 22.0201 14.8442 21.8278C15.0365 21.6355 15.2815 21.5045 15.5482 21.4515C15.8149 21.3984 16.0914 21.4257 16.3426 21.5297C16.5939 21.6338 16.8086 21.81 16.9597 22.0362C17.1108 22.2623 17.1914 22.5281 17.1914 22.8001C17.1959 22.9834 17.1636 23.1658 17.0965 23.3365C17.0294 23.5072 16.9288 23.6627 16.8007 23.794C16.6726 23.9252 16.5195 24.0295 16.3504 24.1006C16.1814 24.1718 15.9998 24.2085 15.8164 24.2084V24.1751ZM16.9581 17.4584V18.8917C16.9564 19.1832 16.8432 19.463 16.6417 19.6738C16.4403 19.8845 16.1659 20.0102 15.8748 20.0251H15.7831C15.6358 20.0306 15.4888 20.007 15.3506 19.9554C15.2125 19.9039 15.0859 19.8255 14.9782 19.7248C14.8705 19.624 14.7838 19.503 14.7232 19.3686C14.6625 19.2342 14.6291 19.0891 14.6248 18.9417C14.6248 18.5751 14.6248 16.6417 14.6248 16.6417C14.611 16.5081 14.6246 16.3731 14.6646 16.2449C14.7046 16.1167 14.7702 15.998 14.8575 15.8959C14.9448 15.7938 15.0519 15.7105 15.1723 15.6511C15.2927 15.5916 15.424 15.5573 15.5581 15.5501C16.8664 15.4501 19.0414 14.9667 19.0414 12.8417C19.0414 11.3167 17.8664 10.2834 16.1831 10.2834C15.545 10.2939 14.9167 10.4424 14.3413 10.7186C13.7659 10.9947 13.2571 11.3921 12.8498 11.8834C12.6957 12.0471 12.4964 12.1613 12.2773 12.2115C12.0582 12.2616 11.8291 12.2455 11.6191 12.1651C11.4092 12.0847 11.2279 11.9436 11.0983 11.7599C10.9688 11.5762 10.8967 11.3581 10.8914 11.1334C10.8964 10.8192 11.0251 10.5197 11.2498 10.3001C11.8686 9.58361 12.6371 9.01157 13.501 8.62426C14.3648 8.23695 15.3031 8.0438 16.2498 8.0584C19.3331 8.0584 21.4831 9.97507 21.4831 12.7251C21.4831 15.3001 19.8414 17.0001 16.9581 17.4917V17.4584Z" fill="#AAAAAA"/>
<path d="M26.0002 10.1666C28.3013 10.1666 30.1668 8.30111 30.1668 5.99992C30.1668 3.69873 28.3013 1.83325 26.0002 1.83325C23.699 1.83325 21.8335 3.69873 21.8335 5.99992C21.8335 8.30111 23.699 10.1666 26.0002 10.1666Z" fill="#AAAAAA"/>
</svg>
