<svg width="72" height="77" viewBox="0 0 72 77" fill="none" xmlns="http://www.w3.org/2000/svg">
<path d="M48.6562 30.8438H23.3438C22.9708 30.8438 22.6131 30.6956 22.3494 30.4319C22.0857 30.1681 21.9375 29.8105 21.9375 29.4375C21.9375 29.0645 22.0857 28.7069 22.3494 28.4431C22.6131 28.1794 22.9708 28.0312 23.3438 28.0312H48.6562C49.0292 28.0312 49.3869 28.1794 49.6506 28.4431C49.9143 28.7069 50.0625 29.0645 50.0625 29.4375C50.0625 29.8105 49.9143 30.1681 49.6506 30.4319C49.3869 30.6956 49.0292 30.8438 48.6562 30.8438Z" fill="#AAAAAA"/>
<path d="M43.9688 37.4062H28.0312C27.6583 37.4062 27.3006 37.2581 27.0369 36.9944C26.7732 36.7306 26.625 36.373 26.625 36C26.625 35.627 26.7732 35.2694 27.0369 35.0056C27.3006 34.7419 27.6583 34.5938 28.0312 34.5938H43.9688C44.3417 34.5938 44.6994 34.7419 44.9631 35.0056C45.2268 35.2694 45.375 35.627 45.375 36C45.375 36.373 45.2268 36.7306 44.9631 36.9944C44.6994 37.2581 44.3417 37.4062 43.9688 37.4062Z" fill="#AAAAAA"/>
<path d="M38.3438 43.9688H33.6562C33.2833 43.9688 32.9256 43.8206 32.6619 43.5569C32.3982 43.2931 32.25 42.9355 32.25 42.5625C32.25 42.1895 32.3982 41.8319 32.6619 41.5681C32.9256 41.3044 33.2833 41.1562 33.6562 41.1562H38.3438C38.7167 41.1562 39.0744 41.3044 39.3381 41.5681C39.6018 41.8319 39.75 42.1895 39.75 42.5625C39.75 42.9355 39.6018 43.2931 39.3381 43.5569C39.0744 43.8206 38.7167 43.9688 38.3438 43.9688Z" fill="#AAAAAA"/>
<rect x="0.5" y="0.5" width="71" height="76" rx="4.5" stroke="#9747FF" stroke-dasharray="10 5"/>
</svg>
