<svg width="16" height="16" viewBox="0 0 16 16" fill="none" xmlns="http://www.w3.org/2000/svg">
<path d="M9.75021 4.85864H8.40421V11.1419H9.75021C10.4925 11.1419 11.0967 10.5614 11.0967 9.84839V6.15239C11.0967 5.43914 10.4925 4.85864 9.75021 4.85864Z" fill="#AAAAAA"/>
<path d="M13 0.5H3C1.61925 0.5 0.5 1.61925 0.5 3V13C0.5 14.3807 1.61925 15.5 3 15.5H13C14.3807 15.5 15.5 14.3807 15.5 13V3C15.5 1.61925 14.3807 0.5 13 0.5ZM5.75 12.25H4.75V3.75H5.75V12.25ZM12.25 9.84825C12.2501 10.17 12.1831 10.4883 12.0533 10.7828C11.9264 11.07 11.7444 11.3294 11.5175 11.5465C11.2877 11.767 11.0181 11.9417 10.723 12.0612C10.4139 12.1866 10.0835 12.2507 9.75 12.25H7.25V3.75H9.75C10.087 3.75 10.4143 3.8135 10.7233 3.9385C11.0208 4.0595 11.2882 4.2325 11.5177 4.45325C11.7472 4.674 11.9273 4.93125 12.0535 5.2165C12.1832 5.51142 12.2501 5.83008 12.25 6.15225V9.84825Z" fill="#AAAAAA"/>
</svg>
