<svg width="72" height="77" viewBox="0 0 72 77" fill="none" xmlns="http://www.w3.org/2000/svg">
<path d="M36 21C27.7158 21 21 27.7158 21 36C21 44.2842 27.7158 51 36 51C44.2842 51 51 44.2843 51 36C51 27.7157 44.2842 21 36 21ZM38.5 45.6104C38.5 46.1763 38.0412 46.635 37.4754 46.635H34.6645C34.0987 46.635 33.6399 46.1763 33.6399 45.6104V34.205C33.6399 33.6392 34.0986 33.1805 34.6645 33.1805H37.4754C38.0412 33.1805 38.5 33.6391 38.5 34.205V45.6104ZM36 31.2391C34.5953 31.2391 33.4565 30.1004 33.4565 28.6957C33.4565 27.2909 34.5953 26.1522 36 26.1522C37.4047 26.1522 38.5435 27.2909 38.5435 28.6957C38.5435 30.1004 37.4047 31.2391 36 31.2391Z" fill="#FBB03B" fill-opacity="0.5"/>
<rect x="0.5" y="0.5" width="71" height="76" rx="4.5" stroke="#9747FF" stroke-dasharray="10 5"/>
</svg>
