<svg width="72" height="77" viewBox="0 0 72 77" fill="none" xmlns="http://www.w3.org/2000/svg">
<g clip-path="url(#clip0_110_1610)">
<path d="M36 50.9998C44.2843 50.9998 51 44.284 51 35.9998C51 27.7155 44.2843 20.9998 36 20.9998C27.7157 20.9998 21 27.7155 21 35.9998C21 44.284 27.7157 50.9998 36 50.9998Z" fill="#007AB9"/>
<path d="M44.9625 37.2069V43.391H41.377V37.6213C41.377 36.1726 40.8594 35.1833 39.5612 35.1833C38.5705 35.1833 37.982 35.8493 37.7221 36.4943C37.6277 36.7248 37.6034 37.0448 37.6034 37.3681V43.3908H34.0177C34.0177 43.3908 34.0658 33.6188 34.0177 32.6072H37.6036V34.1354C37.5964 34.1474 37.5863 34.1592 37.5798 34.1707H37.6036V34.1354C38.0801 33.4022 38.9299 32.354 40.835 32.354C43.1939 32.354 44.9625 33.8952 44.9625 37.2069ZM30.2667 27.4092C29.0402 27.4092 28.2378 28.2143 28.2378 29.2721C28.2378 30.3074 29.017 31.1358 30.2197 31.1358H30.2429C31.4935 31.1358 32.2711 30.3074 32.2711 29.2721C32.2473 28.2143 31.4935 27.4092 30.2667 27.4092ZM28.4509 43.391H32.0353V32.6072H28.4509V43.391Z" fill="#F1F2F2"/>
</g>
<rect x="0.5" y="0.5" width="71" height="76" rx="4.5" stroke="#9747FF" stroke-dasharray="10 5"/>
<defs>
<clipPath id="clip0_110_1610">
<rect width="30" height="30" fill="white" transform="translate(21 21)"/>
</clipPath>
</defs>
</svg>
