<svg width="24" height="24" viewBox="0 0 24 24" fill="none" xmlns="http://www.w3.org/2000/svg">
<g clip-path="url(#clip0_73_621)">
<path d="M1.05664 12.747L8.43945 20.1298C9.09863 20.789 10.2412 20.3276 10.2412 19.3828V15.164H16.2178C16.8022 15.164 17.2725 14.6938 17.2725 14.1093V9.89058C17.2725 9.30611 16.8022 8.8359 16.2178 8.8359H10.2412V4.61715C10.2412 3.67672 9.10303 3.2109 8.43945 3.87008L1.05664 11.2529C0.647949 11.666 0.647949 12.3339 1.05664 12.747ZM14.46 19.9101V18.1523C14.46 17.8623 14.6973 17.625 14.9873 17.625H18.6787C19.4565 17.625 20.085 16.9965 20.085 16.2187V7.78121C20.085 7.00338 19.4565 6.37496 18.6787 6.37496H14.9873C14.6973 6.37496 14.46 6.13765 14.46 5.84761V4.0898C14.46 3.79976 14.6973 3.56246 14.9873 3.56246H18.6787C21.0078 3.56246 22.8975 5.45211 22.8975 7.78121V16.2187C22.8975 18.5478 21.0078 20.4375 18.6787 20.4375H14.9873C14.6973 20.4375 14.46 20.2002 14.46 19.9101Z" fill="#AAAAAA"/>
</g>
<defs>
<clipPath id="clip0_73_621">
<rect width="22.5" height="22.5" fill="white" transform="translate(0.75 0.75)"/>
</clipPath>
</defs>
</svg>
