<svg width="32" height="32" viewBox="0 0 32 32" fill="none" xmlns="http://www.w3.org/2000/svg">
<path d="M28.7356 22.7395H10.6221C9.37146 22.7395 8.35742 23.754 8.35742 25.0052C8.35742 26.2554 9.37146 27.2699 10.6221 27.2699H28.7356C29.9858 27.2699 30.9998 26.2554 30.9998 25.0052C30.9998 23.7545 29.9858 22.7395 28.7356 22.7395Z" fill="#AAAAAA"/>
<path d="M28.7356 13.7246H10.6221C9.37146 13.7246 8.35742 14.7386 8.35742 15.9898C8.35742 17.2405 9.37146 18.2545 10.6221 18.2545H28.7356C29.9858 18.2545 30.9998 17.2405 30.9998 15.9898C30.9998 14.7391 29.9858 13.7246 28.7356 13.7246Z" fill="#AAAAAA"/>
<path d="M10.6221 9.2394H28.7356C29.9858 9.2394 30.9998 8.22536 30.9998 6.9742C30.9998 5.72303 29.9858 4.70947 28.7356 4.70947H10.6221C9.37146 4.70947 8.35742 5.72351 8.35742 6.9742C8.35742 8.22488 9.37146 9.2394 10.6221 9.2394Z" fill="#AAAAAA"/>
<path d="M3.29894 9.29393C4.56861 9.29393 5.59789 8.26466 5.59789 6.99499C5.59789 5.72532 4.56861 4.69604 3.29894 4.69604C2.02927 4.69604 1 5.72532 1 6.99499C1 8.26466 2.02927 9.29393 3.29894 9.29393Z" fill="#AAAAAA"/>
<path d="M3.29895 18.2883C4.56835 18.2883 5.59741 17.2593 5.59741 15.9899C5.59741 14.7205 4.56835 13.6914 3.29895 13.6914C2.02954 13.6914 1.00049 14.7205 1.00049 15.9899C1.00049 17.2593 2.02954 18.2883 3.29895 18.2883Z" fill="#AAAAAA"/>
<path d="M3.29894 27.3037C4.56861 27.3037 5.59789 26.2744 5.59789 25.0048C5.59789 23.7351 4.56861 22.7058 3.29894 22.7058C2.02927 22.7058 1 23.7351 1 25.0048C1 26.2744 2.02927 27.3037 3.29894 27.3037Z" fill="#AAAAAA"/>
</svg>
