<svg width="32" height="32" viewBox="0 0 32 32" fill="none" xmlns="http://www.w3.org/2000/svg">
<g clip-path="url(#clip0_156_2396)">
<path d="M28.7356 22.7397H3.26472C2.01404 22.7397 1 23.7543 1 25.0054C1 26.2556 2.01404 27.2702 3.26472 27.2702H28.7356C29.9858 27.2702 30.9998 26.2556 30.9998 25.0054C30.9998 23.7548 29.9858 22.7397 28.7356 22.7397Z" fill="#AAAAAA"/>
<path d="M28.7358 13.7249H3.26472C2.01404 13.7249 1 14.7389 1 15.9901C1 17.2407 2.01404 18.2548 3.26472 18.2548H28.7358C29.986 18.2548 31 17.2407 31 15.9901C31 14.7394 29.986 13.7249 28.7358 13.7249Z" fill="#AAAAAA"/>
<path d="M3.26472 9.23965H28.7356C29.9858 9.23965 30.9998 8.22561 30.9998 6.97444C30.9998 5.72328 29.9858 4.70972 28.7356 4.70972H3.26472C2.01404 4.70972 1 5.72376 1 6.97444C1 8.22512 2.01404 9.23965 3.26472 9.23965Z" fill="#AAAAAA"/>
</g>
<defs>
<clipPath id="clip0_156_2396">
<rect width="30" height="30" fill="white" transform="translate(1 1)"/>
</clipPath>
</defs>
</svg>
