<svg width="72" height="124" viewBox="0 0 72 124" fill="none" xmlns="http://www.w3.org/2000/svg">
<g clip-path="url(#clip0_156_2386)">
<path d="M48.7356 94.7397H23.2647C22.014 94.7397 21 95.7543 21 97.0054C21 98.2556 22.014 99.2702 23.2647 99.2702H48.7356C49.9858 99.2702 50.9998 98.2556 50.9998 97.0054C50.9998 95.7548 49.9858 94.7397 48.7356 94.7397Z" fill="#AAAAAA"/>
<path d="M48.7358 85.7249H23.2647C22.014 85.7249 21 86.7389 21 87.9901C21 89.2407 22.014 90.2548 23.2647 90.2548H48.7358C49.986 90.2548 51 89.2407 51 87.9901C51 86.7394 49.986 85.7249 48.7358 85.7249Z" fill="#AAAAAA"/>
<path d="M23.2647 81.2396H48.7356C49.9858 81.2396 50.9998 80.2256 50.9998 78.9744C50.9998 77.7233 49.9858 76.7097 48.7356 76.7097H23.2647C22.014 76.7097 21 77.7238 21 78.9744C21 80.2251 22.014 81.2396 23.2647 81.2396Z" fill="#AAAAAA"/>
</g>
<g clip-path="url(#clip1_156_2386)">
<path d="M48.7356 42.7397H23.2647C22.014 42.7397 21 43.7543 21 45.0054C21 46.2556 22.014 47.2702 23.2647 47.2702H48.7356C49.9858 47.2702 50.9998 46.2556 50.9998 45.0054C50.9998 43.7548 49.9858 42.7397 48.7356 42.7397Z" fill="#5DB6F2"/>
<path d="M48.7358 33.7249H23.2647C22.014 33.7249 21 34.7389 21 35.9901C21 37.2407 22.014 38.2548 23.2647 38.2548H48.7358C49.986 38.2548 51 37.2407 51 35.9901C51 34.7394 49.986 33.7249 48.7358 33.7249Z" fill="#5DB6F2"/>
<path d="M23.2647 29.2396H48.7356C49.9858 29.2396 50.9998 28.2256 50.9998 26.9744C50.9998 25.7233 49.9858 24.7097 48.7356 24.7097H23.2647C22.014 24.7097 21 25.7238 21 26.9744C21 28.2251 22.014 29.2396 23.2647 29.2396Z" fill="#5DB6F2"/>
</g>
<rect x="0.5" y="0.5" width="71" height="123" rx="4.5" stroke="#9747FF" stroke-dasharray="10 5"/>
<defs>
<clipPath id="clip0_156_2386">
<rect width="30" height="30" fill="white" transform="translate(21 73)"/>
</clipPath>
<clipPath id="clip1_156_2386">
<rect width="30" height="30" fill="white" transform="translate(21 21)"/>
</clipPath>
</defs>
</svg>
