<svg width="16" height="16" viewBox="0 0 16 16" fill="none" xmlns="http://www.w3.org/2000/svg">
<path fill-rule="evenodd" clip-rule="evenodd" d="M13.4557 0.50059H2.57465C2.04158 0.487737 1.52491 0.685449 1.13657 1.05089C0.748238 1.41634 0.519509 1.92008 0.499939 2.453V13.5475C0.517542 14.0749 0.740822 14.5745 1.12201 14.9393C1.5032 15.3042 2.01204 15.5054 2.53966 15.4999H5.28928C5.56424 14.3649 6.90406 13.7075 8.32386 13.1275C9.38372 12.6775 9.54619 12.2925 9.54619 11.8426C9.54619 11.3926 9.22374 10.9751 8.87129 10.6526C8.55201 10.374 8.29951 10.0271 8.13249 9.63763C7.96547 9.24816 7.8882 8.82611 7.90642 8.40272C7.90642 6.7303 8.99877 5.25287 10.906 5.25287C12.8132 5.25287 13.9056 6.7003 13.9056 8.40272C13.91 8.82421 13.8264 9.24199 13.6603 9.62937C13.4941 10.0168 13.2491 10.3653 12.9407 10.6526C12.5883 11.0051 12.2658 11.4026 12.2658 11.8426C12.2658 12.2825 12.3933 12.6775 13.4882 13.1275C14.1689 13.3843 14.8207 13.7119 15.4329 14.105C15.4832 13.9236 15.5052 13.7355 15.4979 13.5475V2.453C15.5329 1.39055 14.603 0.50059 13.4557 0.50059ZM7.40149 3.83793C7.39523 4.0187 7.32046 4.19032 7.19234 4.31798C7.06423 4.44564 6.89235 4.5198 6.71158 4.5254H3.19457C3.01292 4.52105 2.8398 4.44745 2.71063 4.31965C2.58146 4.19186 2.50599 4.01954 2.49966 3.83793V3.15047C2.50592 2.9697 2.58069 2.79808 2.70881 2.67042C2.83693 2.54275 3.0088 2.4686 3.18957 2.463H6.71158C6.89235 2.4686 7.06423 2.54275 7.19234 2.67042C7.32046 2.79808 7.39523 2.9697 7.40149 3.15047V3.83793Z" fill="#AAAAAA"/>
</svg>
