<svg width="72" height="77" viewBox="0 0 72 77" fill="none" xmlns="http://www.w3.org/2000/svg">
<path d="M42.785 34.2143C42.659 34.0878 42.5204 33.982 42.3761 33.8891L32.6861 24.1992C31.7404 23.2544 30.2072 23.2535 29.261 24.1992C28.3162 25.1449 28.3153 26.6776 29.261 27.6242L37.6062 35.9685L29.2189 44.3571C28.2736 45.3028 28.2732 46.8356 29.2189 47.7817C29.6924 48.2539 30.3117 48.4911 30.931 48.4902C31.5507 48.4911 32.1704 48.2539 32.6421 47.7808L42.3756 38.0487C42.5204 37.9559 42.6586 37.8492 42.785 37.7218C43.2684 37.2384 43.5011 36.6026 43.4899 35.9685C43.5016 35.3353 43.2684 34.6977 42.785 34.2143Z" fill="#AAAAAA"/>
<rect x="0.5" y="0.5" width="71" height="76" rx="4.5" stroke="#9747FF" stroke-dasharray="10 5"/>
</svg>
