<svg width="16" height="16" viewBox="0 0 16 16" fill="none" xmlns="http://www.w3.org/2000/svg">
<path d="M14.2629 1.7542L12.4571 0.685393C12.2061 0.501645 11.2511 0.229085 10.6512 1.14783L9.3198 3.38956C8.79641 4.28074 9.46672 5.05554 9.78198 5.19641C9.78198 5.19641 9.91359 5.2546 9.87074 5.3036C8.86987 6.4949 7.26297 8.25276 5.27041 9.89425C5.25817 9.89425 5.10819 9.686 5.10819 9.686C4.84803 9.2695 4.12263 8.79176 3.28398 9.30319L1.10165 10.7272C0.266062 11.2907 0.468073 12.2677 0.719055 12.5525L1.90051 14.3624C3.16767 16.1049 4.9123 15.3883 5.30102 15.1556C7.65475 13.7621 12.0622 10.6109 15.1689 5.17804C15.8515 3.98674 15.4444 2.45244 14.2629 1.7542V1.7542Z" fill="#AAAAAA"/>
<path d="M1.21815 7.92502C1.56401 7.92502 1.84254 7.64634 1.84254 7.30028C1.84254 4.41237 4.19015 2.06345 7.07645 2.06345C7.42232 2.06345 7.70085 1.78477 7.70085 1.43871C7.70085 1.09265 7.42232 0.813965 7.07645 0.813965C3.50148 0.813965 0.59375 3.72331 0.59375 7.30028C0.59375 7.64328 0.87534 7.92502 1.21815 7.92502V7.92502Z" fill="#AAAAAA"/>
<path d="M3.74902 6.98504C3.74902 7.3311 4.02755 7.60979 4.37342 7.60979C4.71929 7.60979 4.99782 7.3311 4.99782 6.98504C4.99782 6.01117 5.79055 5.21799 6.76388 5.21799C7.10974 5.21799 7.38827 4.93931 7.38827 4.59325C7.38827 4.24719 7.10974 3.96851 6.76388 3.96851C5.10188 3.96851 3.74902 5.32212 3.74902 6.98504Z" fill="#AAAAAA"/>
</svg>
