<svg width="72" height="77" viewBox="0 0 72 77" fill="none" xmlns="http://www.w3.org/2000/svg">
<path d="M29.215 37.7662C29.341 37.8927 29.4796 37.9985 29.6239 38.0913L39.3139 47.7813C40.2596 48.7261 41.7928 48.727 42.739 47.7813C43.6838 46.8356 43.6847 45.3029 42.739 44.3562L34.3938 36.012L42.7811 27.6233C43.7264 26.6776 43.7268 25.1449 42.7811 24.1987C42.3076 23.7266 41.6883 23.4893 41.069 23.4902C40.4493 23.4893 39.8296 23.7266 39.3579 24.1996L29.6244 33.9318C29.4796 34.0246 29.3414 34.1313 29.215 34.2587C28.7316 34.7421 28.4989 35.3779 28.5101 36.012C28.4984 36.6452 28.7316 37.2828 29.215 37.7662Z" fill="#AAAAAA"/>
<rect x="0.5" y="0.5" width="71" height="76" rx="4.5" stroke="#9747FF" stroke-dasharray="10 5"/>
</svg>
