<svg width="72" height="77" viewBox="0 0 72 77" fill="none" xmlns="http://www.w3.org/2000/svg">
<g clip-path="url(#clip0_107_1353)">
<path d="M27.5569 44.731C26.9686 44.1427 26.6745 43.5318 26.6745 42.8982C26.6971 42.242 27.0026 41.6198 27.5909 41.0315L32.6481 35.9742L27.6927 31.0188C27.127 30.4531 26.8329 29.8648 26.8102 29.2539C26.8102 28.6203 27.0931 28.0207 27.6588 27.455C28.2244 26.8893 28.8128 26.6178 29.4237 26.6404C30.0573 26.6404 30.6569 26.9233 31.2226 27.4889L36.178 32.4444L41.0316 27.5908C41.6425 26.9798 42.2648 26.6744 42.8983 26.6744C43.5319 26.6744 44.1541 26.9798 44.7651 27.5908C45.3534 28.1791 45.6362 28.7787 45.6136 29.3897C45.6136 30.0232 45.3081 30.6455 44.6972 31.2564L39.8436 36.11L44.799 41.0654C45.3873 41.6537 45.6702 42.2533 45.6476 42.8643C45.6702 43.4752 45.3987 44.0635 44.833 44.6292C44.2673 45.1949 43.6677 45.4777 43.0341 45.4777C42.4458 45.4777 41.8575 45.1836 41.2692 44.5953L36.3137 39.6399L31.2565 44.6971C30.6682 45.2854 30.046 45.5909 29.3898 45.6135C28.7788 45.6361 28.1679 45.342 27.5569 44.731Z" fill="#FF4141"/>
</g>
<rect x="0.5" y="0.5" width="71" height="76" rx="4.5" stroke="#9747FF" stroke-dasharray="10 5"/>
<defs>
<clipPath id="clip0_107_1353">
<rect width="32" height="32" fill="white" transform="translate(20 20)"/>
</clipPath>
</defs>
</svg>
