<svg width="72" height="77" viewBox="0 0 72 77" fill="none" xmlns="http://www.w3.org/2000/svg">
<path d="M36 21C27.7157 21 21 27.7157 21 36C21 44.2843 27.7157 51 36 51C44.2843 51 51 44.2843 51 36C51 27.7157 44.2843 21 36 21Z" fill="#40B3E0"/>
<path d="M43.2989 29.6285L40.6198 43.1364C40.6198 43.1364 40.2451 44.0732 39.2147 43.6235L33.0321 38.8835L30.784 37.797L26.9996 36.5229C26.9996 36.5229 26.4188 36.3169 26.3625 35.8672C26.3064 35.4176 27.0183 35.1741 27.0183 35.1741L42.0624 29.2725C42.0624 29.2725 43.2989 28.7292 43.2989 29.6285Z" fill="white"/>
<path d="M32.5566 42.9849C32.5566 42.9849 32.3762 42.968 32.1513 42.256C31.9265 41.5441 30.7837 37.7971 30.7837 37.7971L39.8701 32.0268C39.8701 32.0268 40.3947 31.7083 40.376 32.0268C40.376 32.0268 40.4696 32.0829 40.1886 32.3452C39.9076 32.6076 33.0506 38.7713 33.0506 38.7713" fill="#D2E5F1"/>
<path d="M35.4024 40.701L32.957 42.9306C32.957 42.9306 32.7658 43.0757 32.5566 42.9848L33.0249 38.8433" fill="#B5CFE4"/>
<rect x="0.5" y="0.5" width="71" height="76" rx="4.5" stroke="#9747FF" stroke-dasharray="10 5"/>
</svg>
