<svg width="32" height="32" viewBox="0 0 32 32" fill="none" xmlns="http://www.w3.org/2000/svg">
<path d="M15.5712 12.7142C15.2498 12.4999 14.8212 12.3928 14.3926 12.607C14.0712 12.8213 13.8569 13.1428 13.8569 13.5713V18.9285C13.8569 19.357 14.0712 19.6785 14.4998 19.8928C14.6069 19.9999 14.8212 19.9999 14.9284 19.9999C15.1426 19.9999 15.4641 19.8928 15.5712 19.7856L18.7855 17.107C18.9998 16.8928 19.2141 16.5713 19.2141 16.2499C19.2141 15.9285 19.1069 15.607 18.7855 15.3928L15.5712 12.7142Z" fill="#FBB03B"/>
<path d="M27.7857 5H4.21429C2.39286 5 1 6.39286 1 8.21429V24.2857C1 26.1071 2.39286 27.5 4.21429 27.5H11.6071H20.2857H27.7857C29.6071 27.5 31 26.1071 31 24.2857V8.21429C31 6.39286 29.6071 5 27.7857 5ZM26.7143 22.1429C26.7143 22.7857 26.2857 23.2143 25.6429 23.2143H6.35714C5.71429 23.2143 5.28571 22.7857 5.28571 22.1429V10.3571C5.28571 9.71429 5.71429 9.28571 6.35714 9.28571H25.6429C26.2857 9.28571 26.7143 9.71429 26.7143 10.3571V22.1429Z" fill="#5DB6F2"/>
</svg>
