<svg width="16" height="16" viewBox="0 0 16 16" fill="none" xmlns="http://www.w3.org/2000/svg">
<path fill-rule="evenodd" clip-rule="evenodd" d="M9.62259 3.48637C9.10134 3.34736 8.55735 3.26501 8 3.26501C5.93465 3.26501 4.04065 4.41998 2.8155 5.38889C1.60367 6.34725 0.5 7.59181 0.5 7.99999C0.5 8.46524 1.56091 9.68426 2.81669 10.662C3.13335 10.9085 3.55155 11.2082 4.04533 11.5023L5.35517 9.61971C5.06587 9.14831 4.89907 8.59365 4.89907 8.00003C4.89907 6.28742 6.28739 4.8991 8 4.8991C8.20505 4.8991 8.40545 4.919 8.59937 4.95698L9.62259 3.48637ZM7.40925 11.0448C7.60049 11.0816 7.79799 11.101 8 11.101C9.71261 11.101 11.1009 9.7126 11.1009 8.00003C11.1009 7.40954 10.9359 6.85761 10.6494 6.38783L11.9557 4.51031C12.4142 4.78819 12.8276 5.0834 13.1839 5.36293C14.4177 6.33093 15.5 7.56319 15.5 7.99999C15.5 8.46765 14.4391 9.68798 13.1833 10.6648C12.1893 11.438 10.1943 12.735 8 12.735C7.4451 12.735 6.90284 12.6518 6.38624 12.5151L7.40925 11.0448Z" fill="#AAAAAA"/>
<rect x="12.4976" y="0.5" width="1.5" height="17.183" rx="0.75" transform="rotate(35.222 12.4976 0.5)" fill="#AAAAAA"/>
</svg>
