<svg width="16" height="16" viewBox="0 0 16 16" fill="none" xmlns="http://www.w3.org/2000/svg">
<g clip-path="url(#clip0_137_1220)">
<path d="M13.5295 5.18724C12.2283 4.16638 10.2128 2.94946 8 2.94946C5.79696 2.94946 3.77669 4.18143 2.46987 5.21493C1.17725 6.23718 0 7.56471 0 8.0001C0 8.49637 1.13164 9.79666 2.47113 10.8395C3.53183 11.6653 5.66059 13.0507 8 13.0507C10.3406 13.0507 12.4686 11.6673 13.5288 10.8426C14.8684 9.80062 16 8.49894 16 8.0001C16 7.53419 14.8456 6.21977 13.5295 5.18724ZM8 11.3078C6.17322 11.3078 4.69234 9.82689 4.69234 8.00015C4.69234 6.17336 6.17322 4.69249 8 4.69249C9.82678 4.69249 11.3077 6.17336 11.3077 8.00015C11.3077 9.82689 9.82678 11.3078 8 11.3078Z" fill="#AAAAAA"/>
</g>
<defs>
<clipPath id="clip0_137_1220">
<rect width="16" height="16" fill="white"/>
</clipPath>
</defs>
</svg>
