<svg width="72" height="77" viewBox="0 0 72 77" fill="none" xmlns="http://www.w3.org/2000/svg">
<path d="M30.0663 44.1175L30.9713 44.6462C32.4974 45.5363 34.2333 46.0036 36 46C37.9778 46 39.9112 45.4135 41.5557 44.3147C43.2002 43.2159 44.4819 41.6541 45.2388 39.8268C45.9957 37.9996 46.1937 35.9889 45.8079 34.0491C45.422 32.1093 44.4696 30.3275 43.0711 28.9289C41.6726 27.5304 39.8907 26.578 37.9509 26.1921C36.0111 25.8063 34.0004 26.0043 32.1732 26.7612C30.3459 27.5181 28.7841 28.7998 27.6853 30.4443C26.5865 32.0888 26 34.0222 26 36C26 37.795 26.4713 39.5163 27.355 41.03L27.8825 41.935L27.0663 44.9363L30.0663 44.1175ZM23.505 48.5L25.195 42.29C24.0814 40.3811 23.4964 38.21 23.5 36C23.5 29.0963 29.0963 23.5 36 23.5C42.9038 23.5 48.5 29.0963 48.5 36C48.5 42.9037 42.9038 48.5 36 48.5C33.791 48.5036 31.6208 47.919 29.7125 46.8063L23.505 48.5ZM31.4888 30.135C31.6563 30.1225 31.825 30.1225 31.9925 30.13C32.06 30.135 32.1275 30.1425 32.195 30.15C32.3938 30.1725 32.6125 30.2937 32.6863 30.4612C33.0588 31.3062 33.4213 32.1575 33.7713 33.0113C33.8488 33.2013 33.8025 33.445 33.655 33.6825C33.5536 33.8431 33.4438 33.9983 33.3263 34.1475C33.185 34.3287 32.8813 34.6613 32.8813 34.6613C32.8813 34.6613 32.7575 34.8088 32.805 34.9925C32.8225 35.0625 32.88 35.1638 32.9325 35.2488L33.0063 35.3675C33.3263 35.9013 33.7563 36.4425 34.2813 36.9525C34.4313 37.0975 34.5775 37.2463 34.735 37.385C35.32 37.9012 35.9825 38.3225 36.6975 38.635L36.7038 38.6375C36.81 38.6837 36.8638 38.7088 37.0188 38.775C37.0963 38.8075 37.1763 38.8363 37.2575 38.8575C37.3415 38.8789 37.4299 38.8749 37.5116 38.8459C37.5932 38.817 37.6645 38.7645 37.7163 38.695C38.6213 37.5988 38.7038 37.5275 38.7113 37.5275V37.53C38.7741 37.4714 38.8488 37.4269 38.9303 37.3995C39.0118 37.3721 39.0982 37.3625 39.1838 37.3713C39.2588 37.3763 39.335 37.39 39.405 37.4213C40.0688 37.725 41.155 38.1987 41.155 38.1987L41.8825 38.525C42.005 38.5838 42.1163 38.7225 42.12 38.8562C42.125 38.94 42.1325 39.075 42.1038 39.3225C42.0638 39.6462 41.9663 40.035 41.8688 40.2388C41.802 40.3778 41.7134 40.5052 41.6063 40.6162C41.4801 40.7487 41.342 40.8692 41.1938 40.9762C41.1425 41.0148 41.0904 41.0523 41.0375 41.0887C40.882 41.1874 40.7223 41.2791 40.5588 41.3638C40.2369 41.5347 39.8815 41.6328 39.5175 41.6512C39.2863 41.6637 39.055 41.6812 38.8225 41.6688C38.8125 41.6688 38.1125 41.56 38.1125 41.56C36.3353 41.0925 34.6918 40.2168 33.3125 39.0025C33.03 38.7538 32.7688 38.4862 32.5013 38.22C31.3888 37.1138 30.5488 35.92 30.0388 34.7925C29.7777 34.2391 29.6367 33.6368 29.625 33.025C29.6199 32.2661 29.868 31.5271 30.33 30.925C30.4213 30.8075 30.5075 30.685 30.6563 30.5438C30.815 30.3938 30.915 30.3138 31.0238 30.2587C31.1684 30.1863 31.3261 30.1438 31.4875 30.1337L31.4888 30.135Z" fill="#25D366"/>
<rect x="0.5" y="0.5" width="71" height="76" rx="4.5" stroke="#9747FF" stroke-dasharray="10 5"/>
</svg>
