<svg width="32" height="32" viewBox="0 0 32 32" fill="none" xmlns="http://www.w3.org/2000/svg">
<path d="M3.14286 1C1.98063 1 1 1.98063 1 3.14286V7.42857C1 8.62712 2.04704 9.57143 3.14286 9.57143V5.28571H28.8571V9.57143C29.953 9.57143 31 8.53062 31 7.42857V3.14286C31 1.98063 29.9467 1 28.8571 1H3.14286ZM5.28571 7.42857V24.5714C5.28571 25.8555 6.14448 26.7143 7.42857 26.7143H24.5714C25.7014 26.7143 26.7143 25.7528 26.7143 24.5714V7.42857H24.5714V20.2857C22.4286 20.2857 20.2857 22.4286 20.2857 24.5714H11.7143C11.7143 22.4286 9.57143 20.2857 7.42857 20.2857V7.42857H5.28571ZM16 9.57143C12.634 9.57143 9.57143 11.6131 9.57143 13.8571C9.57143 16.1011 12.634 18.1429 16 18.1429C19.366 18.1429 22.4286 16.1011 22.4286 13.8571C22.4286 11.6131 19.366 9.57143 16 9.57143ZM5.28571 27.7857C5.28571 30.0457 6.19584 31 7.42857 31H24.5714C25.7014 31 26.7143 30.0457 26.7143 27.7857C26.0605 28.3668 25.6501 28.8415 24.5714 28.7902L7.42857 28.9241C6.4013 28.8727 5.93947 28.4395 5.28571 27.7857Z" fill="#AAAAAA"/>
<path d="M3.14286 1C1.98063 1 1 1.98063 1 3.14286V7.42857C1 8.62712 2.04704 9.57143 3.14286 9.57143V5.28571H28.8571V9.57143C29.953 9.57143 31 8.53062 31 7.42857V3.14286C31 1.98063 29.9467 1 28.8571 1H3.14286Z" fill="#AAAAAA"/>
</svg>
