<svg width="1125" height="436" viewBox="0 0 1125 436" fill="none" xmlns="http://www.w3.org/2000/svg">
<path d="M341.93 121.529C341.93 120.579 341.97 119.639 341.89 118.699C341.48 113.649 339.66 109.229 335.78 105.849C334.13 104.409 332.35 103.079 330.47 101.939C325.37 98.8392 320.21 95.8492 315.04 92.8692C309.46 89.6492 303.83 86.5192 298.25 83.2992C285.87 76.1492 273.52 68.9392 261.14 61.7892C250.38 55.5692 239.6 49.3992 228.83 43.1992C218.47 37.2392 208.11 31.2892 197.77 25.2992C195.99 24.2692 194.12 23.4492 192.16 22.8492C189.24 21.9492 186.25 21.5992 183.35 22.6292C180.55 23.6192 177.73 24.5792 175.13 26.1292C168.79 29.9292 162.38 33.6092 155.99 37.3092C145.24 43.5292 134.48 49.7092 123.72 55.9192C107.51 65.2692 91.3102 74.6492 75.0902 83.9792C65.8302 89.3092 56.5102 94.5292 47.2902 99.9292C43.9102 101.909 40.4502 103.849 37.8202 106.879C34.8902 110.259 32.7802 113.929 33.1202 118.679C33.3702 122.119 33.2902 125.589 33.2902 129.049C33.3002 151.889 33.2902 174.729 33.2902 197.569C33.2902 201.819 33.2902 206.079 33.2902 210.329C33.2702 232.539 33.2502 254.739 33.2202 276.949C33.2202 278.039 32.8002 279.229 33.1202 280.189C34.7302 285.059 37.1502 289.479 41.7002 292.199C50.6102 297.509 59.6002 302.679 68.5802 307.869C77.8302 313.219 87.1102 318.519 96.3702 323.859C104.4 328.499 112.4 333.179 120.43 337.819C130.78 343.789 141.14 349.739 151.5 355.699C160.23 360.719 168.95 365.749 177.68 370.749C183.73 374.219 189.87 374.649 196.08 371.159C203.89 366.769 211.71 362.389 219.48 357.929C226.15 354.089 232.73 350.099 239.4 346.249C249.2 340.599 259.05 335.039 268.85 329.389C279.46 323.269 290.01 317.049 300.62 310.919C310.42 305.259 320.28 299.699 330.08 294.039C331.84 293.019 333.64 291.939 335.1 290.549C339.64 286.249 341.97 281.049 341.96 274.609C341.87 223.569 341.91 172.539 341.91 121.499L341.93 121.529ZM99.7102 136.349C99.7102 121.389 111.83 109.249 126.8 109.239L217.41 109.159C218.94 109.159 219.71 111.009 218.62 112.089L167.58 162.959C167.26 163.279 166.82 163.459 166.37 163.459H126.82C111.85 163.459 99.7102 151.319 99.7102 136.349V136.349ZM275.59 258.889C275.59 273.849 263.47 285.989 248.5 285.999L157.84 286.079C156.32 286.079 155.56 284.249 156.64 283.179L207.71 232.269C208.03 231.949 208.46 231.769 208.91 231.769H248.47C263.44 231.769 275.58 243.909 275.58 258.879L275.59 258.889ZM274.32 146.549C272.69 150.619 270.22 153.959 267.23 156.989C261.48 162.809 255.64 168.549 249.86 174.329C230.83 193.349 211.82 212.369 192.79 231.389C175.32 248.859 157.83 266.299 140.42 283.839C138.48 285.789 136.5 286.729 133.78 286.549C130.02 286.309 126.26 286.719 122.49 285.969C108.16 283.129 101.67 273.929 99.4202 262.869C98.1902 256.799 99.8502 250.999 102.78 245.609C104.51 242.409 106.87 239.689 109.44 237.119C131.05 215.549 152.62 193.949 174.22 172.379C186.69 159.929 199.22 147.549 211.69 135.099C219.26 127.539 226.76 119.909 234.31 112.329C237.5 109.119 237.53 109.149 242.13 109.149C243.07 109.149 244.02 109.149 244.78 109.149C247.79 109.219 250.59 109.179 253.42 109.709C260.88 111.119 266.91 114.659 271.26 120.909C274 124.849 275.72 129.189 275.93 134.039C276.11 138.289 275.97 142.429 274.33 146.539L274.32 146.549Z" fill="white"/>
<path d="M633.064 207.623C622.794 207.623 612.534 207.623 602.264 207.623C601.474 207.623 600.684 207.563 599.894 207.603C598.344 207.663 597.884 208.083 597.804 209.503C597.094 221.193 601.474 230.343 611.314 236.873C615.754 239.823 620.664 241.333 625.804 242.323C633.374 243.783 640.904 243.433 648.294 241.363C652.844 240.083 657.084 237.933 661.174 235.533C663.894 233.943 666.734 232.603 669.754 231.633C675.264 229.853 679.684 231.683 683.374 235.703C685.634 238.163 687.234 241.093 688.354 244.243C689.764 248.233 689.304 251.973 686.694 255.433C683.214 260.053 678.784 263.433 673.684 266.113C662.244 272.143 650.014 274.593 637.204 274.733C629.454 274.813 621.734 274.633 614.094 273.143C598.374 270.073 584.374 263.683 573.304 251.803C566.534 244.543 561.824 236.143 559.424 226.383C557.974 220.493 557.344 214.613 557.384 208.593C557.434 200.693 557.484 192.803 557.364 184.903C557.224 175.573 559.204 166.753 563.204 158.363C566.014 152.483 569.784 147.243 574.274 142.553C585.554 130.753 599.264 123.453 615.454 121.193C624.884 119.873 634.264 120.293 643.644 122.503C654.364 125.023 663.724 129.893 671.964 137.013C677.974 142.203 682.874 148.343 686.444 155.493C689.084 160.793 690.444 166.463 691.234 172.263C691.894 177.123 691.874 182.073 691.334 186.923C690.814 191.603 689.734 196.243 686.374 199.963C683.774 202.833 680.824 204.993 676.984 205.963C672.504 207.083 667.954 207.523 663.374 207.553C653.264 207.643 643.164 207.583 633.054 207.583V207.643L633.064 207.623ZM622.694 183.653C629.314 183.653 635.934 183.653 642.564 183.653C643.514 183.653 644.454 183.693 645.404 183.633C651.344 183.273 653.754 182.043 653.624 174.783C653.484 167.183 650.474 160.733 644.144 156.133C638.754 152.223 632.794 150.183 626.074 150.173C618.684 150.163 612.144 152.343 606.434 157.013C598.334 163.643 597.094 172.613 597.874 182.263C597.934 182.953 598.374 183.433 599.064 183.503C600.154 183.603 601.264 183.643 602.364 183.643C609.144 183.653 615.924 183.643 622.704 183.643L622.694 183.653Z" fill="white"/>
<path d="M831.614 219.863C831.614 231.073 831.614 242.293 831.614 253.503C831.614 254.293 831.564 255.083 831.614 255.873C832.294 264.733 826.804 268.683 819.514 271.053C815.154 272.463 810.504 272.393 805.914 271.503C803.034 270.943 800.564 269.643 798.264 267.963C795.314 265.803 793.534 262.943 793.414 259.183C793.354 257.133 793.284 255.083 793.164 253.033C793.144 252.603 793.144 251.983 792.494 251.973C792.064 251.963 791.504 252.003 791.214 252.263C788.754 254.473 786.334 256.743 783.904 258.983C779.364 263.183 774.354 266.773 768.964 269.723C764.524 272.143 759.654 273.603 754.574 274.193C749.064 274.833 743.554 274.953 738.034 274.343C732.454 273.723 727.354 271.783 722.544 268.923C717.164 265.723 712.624 261.703 709.534 256.173C707.674 252.843 706.424 249.303 705.614 245.573C703.944 237.893 703.924 230.133 705.274 222.503C707.384 210.543 714.344 202.023 725.064 196.343C734.464 191.363 744.634 189.433 754.994 188.083C765.054 186.773 775.164 187.043 785.274 187.023C791.524 187.013 791.284 187.653 791.004 181.103C790.754 175.373 789.334 169.903 786.274 164.923C782.594 158.943 777.424 155.043 770.504 153.943C759.354 152.183 748.494 153.263 738.184 158.193C735.904 159.283 733.974 160.933 731.614 161.923C726.544 164.043 721.864 163.253 718.504 158.883C714.524 153.693 712.814 147.683 713.454 141.113C713.624 139.343 714.524 137.863 715.604 136.453C717.864 133.513 720.804 131.373 723.964 129.603C729.784 126.353 736.094 124.343 742.574 122.873C752.504 120.613 762.554 120.033 772.684 120.753C781.074 121.353 789.344 122.843 797.024 126.263C810.994 132.493 821.224 142.503 826.714 157.023C829.244 163.713 830.794 170.553 831.264 177.723C831.744 184.993 831.504 192.243 831.594 199.503C831.674 206.293 831.614 213.083 831.614 219.873V219.863ZM781.614 207.473C776.234 207.583 770.914 208.363 765.584 208.973C761.144 209.483 756.974 210.843 753.024 212.883C749.194 214.863 746.484 217.893 745.484 222.123C744.534 226.163 744.624 230.293 745.724 234.313C746.724 237.943 748.834 240.873 752.264 242.613C758.644 245.843 765.144 245.553 771.424 242.543C778.304 239.253 783.444 233.933 787.354 227.443C790.744 221.813 791.394 215.573 791.044 209.153C790.984 208.043 790.364 207.493 789.194 207.483C786.664 207.463 784.144 207.483 781.614 207.483V207.473Z" fill="white"/>
<path d="M485.014 272.053C468.894 272.053 452.784 272.053 436.664 272.053C435.874 272.053 435.084 272.083 434.294 272.033C427.754 271.683 423.774 267.723 422.494 261.663C421.394 256.423 422.074 251.293 425.114 246.683C425.634 245.893 426.034 245.023 426.594 244.263C431.954 236.863 437.354 229.493 442.714 222.093C448.364 214.303 454.004 206.513 459.644 198.713C465.094 191.173 470.544 183.653 475.964 176.093C480.094 170.323 484.174 164.523 488.274 158.733C488.634 158.223 488.984 157.693 489.274 157.133C489.694 156.353 489.274 155.433 488.424 155.373C487.014 155.263 485.584 155.193 484.174 155.193C469.954 155.183 455.734 155.193 441.514 155.193C440.254 155.193 438.974 155.103 437.724 155.193C433.294 155.543 430.184 153.363 427.664 150.053C422.594 143.393 422.894 132.653 428.294 126.243C430.224 123.943 432.644 122.633 435.664 122.543C436.614 122.513 437.564 122.533 438.504 122.533C467.734 122.533 496.964 122.533 526.194 122.533C527.774 122.533 529.354 122.583 530.934 122.623C535.384 122.733 540.974 126.683 541.634 132.883C542.344 139.643 540.714 145.743 536.814 151.233C531.974 158.043 527.054 164.803 522.174 171.593C516.554 179.393 510.974 187.213 505.324 194.993C497.164 206.213 488.954 217.403 480.774 228.603C478.824 231.273 476.894 233.973 474.944 236.653C474.564 237.183 474.324 237.783 474.504 238.413C474.794 239.413 475.704 239.233 476.444 239.253C477.704 239.283 478.974 239.253 480.234 239.253C497.934 239.253 515.624 239.273 533.324 239.223C536.074 239.223 538.674 239.403 540.904 241.243C543.534 243.423 545.474 246.103 546.354 249.383C547.254 252.753 547.434 256.213 546.954 259.723C546.424 263.503 544.654 266.543 542.064 269.223C540.324 271.023 538.214 271.923 535.744 272.023C534.794 272.063 533.844 272.023 532.904 272.023H485.034V272.043L485.014 272.053Z" fill="white"/>
<path d="M981.354 274.833C971.964 274.923 962.724 273.753 953.774 271.003C946.684 268.823 939.784 266.053 933.954 261.223C931.274 259.003 928.864 256.643 927.304 253.373C926.004 250.633 925.664 247.943 926.244 245.103C926.944 241.673 928.274 238.503 930.324 235.623C935.094 228.923 940.164 228.913 946.344 232.203C947.734 232.943 949.074 233.823 950.284 234.823C953.614 237.563 957.544 239.233 961.374 241.033C965.704 243.073 970.404 243.863 975.154 244.063C979.254 244.233 983.364 244.173 987.474 244.063C990.804 243.983 994.044 243.303 997.114 241.923C1001.48 239.953 1003.99 236.463 1005.1 231.953C1006.11 227.843 1003.54 222.353 999.614 219.673C994.994 216.533 989.874 214.493 984.564 212.923C977.154 210.733 969.664 208.793 962.294 206.473C955.954 204.483 949.844 201.803 944.514 197.793C938.074 192.943 932.914 186.973 931.274 178.813C928.904 167.043 929.694 155.593 935.604 144.813C942.084 133.003 952.264 126.043 965.054 122.873C978.904 119.443 992.884 119.693 1006.87 122.413C1011.07 123.233 1015.17 124.263 1019.22 125.593C1023.62 127.043 1027.66 129.133 1031.32 131.903C1036.22 135.593 1038.03 139.603 1035.64 145.953C1034.19 149.803 1032.46 153.463 1029.47 156.473C1025.99 159.973 1022.1 161.193 1017.44 159.353C1013.48 157.793 1009.53 156.223 1005.62 154.543C997.564 151.063 989.164 150.293 980.564 151.393C975.924 151.983 971.824 153.943 968.474 157.343C962.504 163.393 964.384 171.433 971.374 174.953C975.634 177.103 980.034 178.693 984.644 179.853C993.354 182.043 1002.13 184.043 1010.51 187.363C1016.27 189.643 1021.74 192.473 1026.48 196.463C1033.03 201.973 1037.72 208.653 1039.41 217.313C1040.2 221.363 1040.72 225.363 1040.73 229.483C1040.76 237.933 1038.33 245.663 1033.92 252.773C1030.72 257.933 1026.33 262.033 1021.28 265.333C1012.76 270.913 1003.25 273.583 993.174 274.363C989.244 274.663 985.284 274.693 981.344 274.843L981.354 274.833Z" fill="white"/>
<path d="M861.734 174.173C861.734 147.153 861.734 120.133 861.734 93.1127C861.734 91.6927 861.694 90.2627 861.784 88.8527C861.994 85.8427 863.374 83.3927 865.734 81.6027C868.124 79.7827 870.754 78.3626 873.764 77.7726C879.104 76.7326 884.434 76.7327 889.754 77.8327C892.594 78.4127 895.154 79.6227 897.464 81.3227C900.424 83.5027 902.134 86.4026 902.124 90.1826C902.124 91.1326 902.134 92.0826 902.134 93.0226C902.134 146.903 902.134 200.783 902.124 254.663C902.124 255.773 902.104 256.873 902.124 257.983C902.174 261.383 900.694 264.003 898.194 266.223C892.454 271.323 885.644 272.503 878.304 271.893C873.414 271.493 869.204 269.523 865.474 266.383C863.164 264.433 861.914 262.013 861.744 259.013C861.684 257.913 861.724 256.803 861.724 255.693C861.724 228.513 861.724 201.333 861.724 174.163H861.704L861.734 174.173Z" fill="white"/>
</svg>
