<svg width="153" height="56" viewBox="0 0 153 56" fill="none" xmlns="http://www.w3.org/2000/svg">
<g clip-path="url(#clip0_1038_2598)">
<path d="M52.2991 17.2369C52.2991 17.1041 52.3047 16.9727 52.2934 16.8413C52.2353 16.1352 51.9775 15.5172 51.4278 15.0447C51.1941 14.8433 50.9419 14.6574 50.6756 14.498C49.9531 14.0645 49.2221 13.6465 48.4911 13.2299C47.7006 12.7797 46.903 12.342 46.1125 11.8918C44.3586 10.8922 42.6091 9.88409 40.8538 8.88441C39.3295 8.01476 37.8023 7.15211 36.2766 6.28525C34.8089 5.45196 33.3412 4.62006 31.8764 3.78257C31.6242 3.63856 31.3593 3.52391 31.0816 3.44002C30.668 3.31419 30.2444 3.26525 29.8336 3.40926C29.4369 3.54768 29.0374 3.6819 28.6691 3.89861C27.7709 4.42991 26.8628 4.94443 25.9576 5.46174C24.4346 6.33139 22.9103 7.19545 21.386 8.0637C19.0896 9.37097 16.7946 10.6824 14.4967 11.9869C13.1849 12.7321 11.8646 13.462 10.5584 14.217C10.0796 14.4938 9.58939 14.765 9.2168 15.1887C8.80172 15.6612 8.5028 16.1744 8.55097 16.8385C8.58497 17.3194 8.57505 17.8046 8.57505 18.2884C8.57647 21.4817 8.57505 24.6751 8.57505 27.8685C8.57505 28.4627 8.57505 29.0583 8.57505 29.6525C8.57222 32.7578 8.56939 35.8617 8.56514 38.967C8.56514 39.1194 8.50564 39.2857 8.55097 39.42C8.77905 40.1009 9.12189 40.7188 9.76647 41.0991C11.0287 41.8416 12.3023 42.5644 13.5745 43.29C14.8849 44.0381 16.1996 44.7791 17.5114 45.5257C18.649 46.1744 19.7823 46.8288 20.9199 47.4775C22.3861 48.3122 23.8538 49.1441 25.3215 49.9774C26.5582 50.6793 27.7936 51.3825 29.0303 52.0816C29.8874 52.5668 30.7572 52.6269 31.637 52.1389C32.7434 51.5251 33.8512 50.9127 34.952 50.2892C35.8969 49.7523 36.8291 49.1944 37.774 48.6561C39.1623 47.8662 40.5577 47.0888 41.9461 46.2989C43.4491 45.4432 44.9437 44.5735 46.4468 43.7165C47.8351 42.9251 49.232 42.1478 50.6203 41.3564C50.8696 41.2138 51.1246 41.0628 51.3315 40.8684C51.9746 40.2672 52.3047 39.5402 52.3033 38.6398C52.2906 31.5037 52.2962 24.3689 52.2962 17.2328L52.2991 17.2369Z" fill="#2F317A"/>
<path d="M31.1708 32.5984C33.8653 29.9391 36.5598 27.2784 39.2557 24.6205C40.076 23.8124 40.9019 23.0099 41.7165 22.1961C42.1401 21.7725 42.49 21.3041 42.7209 20.7365C42.9546 20.1618 42.9745 19.583 42.9476 18.9888C42.9178 18.3107 42.6727 17.7039 42.286 17.153C41.6711 16.2778 40.8169 15.7842 39.7586 15.5871C39.3577 15.513 38.9611 15.5186 38.5346 15.5088C38.427 15.5088 38.2938 15.5088 38.1606 15.5088C37.509 15.5088 37.5061 15.506 37.0528 15.9534C35.9832 17.0132 34.9207 18.08 33.8483 19.137C32.0817 20.8777 30.3066 22.6086 28.5401 24.3493C25.4786 27.3651 22.4229 30.3851 19.3629 33.4009C18.9988 33.7602 18.6645 34.1405 18.4194 34.5879C18.0057 35.3429 17.7691 36.1524 17.9434 37.0011C18.2621 38.5475 19.1816 39.8338 21.2116 40.2308C21.7457 40.3357 22.2784 40.2784 22.8111 40.3119C23.1964 40.3357 23.4769 40.2057 23.7517 39.933C26.2167 37.4807 28.6959 35.0423 31.1708 32.5998V32.5984Z" fill="#66B3E4"/>
<path d="M34.8314 15.917L27.6008 23.0294C27.5554 23.0741 27.4931 23.0993 27.4293 23.0993H21.8264C19.7057 23.0993 17.9858 21.4019 17.9858 19.3089C17.9858 17.2173 19.7028 15.5199 21.8236 15.5185L34.66 15.5073C34.8768 15.5073 34.9858 15.766 34.8314 15.917Z" fill="#F8AE4E"/>
<path d="M26.0496 39.8378L33.2845 32.7198C33.3298 32.6751 33.3907 32.6499 33.4545 32.6499H39.0588C41.1796 32.6499 42.8994 34.3473 42.8994 36.4403C42.8994 38.5319 41.1824 40.2293 39.0616 40.2307L26.2181 40.2418C26.0028 40.2418 25.8951 39.986 26.0481 39.8364L26.0496 39.8378Z" fill="#F8AE4E"/>
<path d="M86.7085 29.808C85.2536 29.808 83.8001 29.808 82.3452 29.808C82.2333 29.808 82.1214 29.7996 82.0095 29.8052C81.7899 29.8136 81.7247 29.8723 81.7134 30.0708C81.6128 31.7052 82.2333 32.9846 83.6273 33.8975C84.2563 34.31 84.9519 34.5211 85.68 34.6595C86.7525 34.8637 87.8192 34.8147 88.8661 34.5253C89.5107 34.3463 90.1114 34.0458 90.6908 33.7102C91.0761 33.4879 91.4785 33.3005 91.9063 33.1649C92.6869 32.916 93.313 33.1719 93.8358 33.734C94.156 34.0779 94.3826 34.4876 94.5413 34.928C94.741 35.4858 94.6759 36.0087 94.3061 36.4925C93.8131 37.1385 93.1855 37.611 92.463 37.9857C90.8424 38.8288 89.1098 39.1714 87.2951 39.1909C86.1971 39.2021 85.1035 39.177 84.0211 38.9686C81.7941 38.5394 79.8108 37.646 78.2425 35.985C77.2835 34.9699 76.6162 33.7955 76.2762 32.4309C76.0708 31.6074 75.9816 30.7853 75.9872 29.9436C75.9943 28.8391 76.0014 27.7359 75.9844 26.6314C75.9645 25.3269 76.2451 24.0937 76.8117 22.9207C77.2098 22.0986 77.7439 21.3659 78.38 20.7102C79.978 19.0604 81.9202 18.0397 84.2138 17.7238C85.5497 17.5392 86.8786 17.5979 88.2074 17.9069C89.7261 18.2593 91.0521 18.9402 92.2194 19.9356C93.0708 20.6613 93.765 21.5197 94.2707 22.5194C94.6447 23.2604 94.8374 24.0532 94.9493 24.8641C95.0428 25.5436 95.04 26.2357 94.9635 26.9138C94.8898 27.5681 94.7368 28.2169 94.2608 28.737C93.8925 29.1383 93.4745 29.4403 92.9305 29.5759C92.2959 29.7325 91.6513 29.794 91.0025 29.7982C89.5702 29.8108 88.1394 29.8024 86.7071 29.8024V29.8108L86.7085 29.808ZM85.2395 26.4566C86.1773 26.4566 87.1151 26.4566 88.0544 26.4566C88.189 26.4566 88.3221 26.4622 88.4567 26.4538C89.2982 26.4035 89.6396 26.2315 89.6212 25.2164C89.6014 24.1539 89.175 23.252 88.2782 22.6089C87.5146 22.0622 86.6703 21.777 85.7183 21.7756C84.6714 21.7742 83.7449 22.079 82.936 22.7319C81.7885 23.6589 81.6128 24.913 81.7233 26.2623C81.7318 26.3587 81.7941 26.4258 81.8919 26.4356C82.0463 26.4496 82.2035 26.4552 82.3594 26.4552C83.3199 26.4566 84.2804 26.4552 85.2409 26.4552L85.2395 26.4566Z" fill="#2F317A"/>
<path d="M114.837 31.5194C114.837 33.0867 114.837 34.6554 114.837 36.2227C114.837 36.3332 114.83 36.4437 114.837 36.5541C114.933 37.7929 114.155 38.3451 113.122 38.6765C112.505 38.8736 111.846 38.8639 111.196 38.7394C110.788 38.6611 110.438 38.4794 110.112 38.2445C109.694 37.9425 109.442 37.5426 109.425 37.0169C109.416 36.7303 109.407 36.4437 109.39 36.157C109.387 36.0969 109.387 36.0102 109.295 36.0088C109.234 36.0074 109.154 36.013 109.113 36.0494C108.765 36.3584 108.422 36.6757 108.078 36.9889C107.435 37.5762 106.725 38.0781 105.961 38.4906C105.332 38.8289 104.642 39.033 103.923 39.1155C103.142 39.205 102.361 39.2218 101.579 39.1365C100.789 39.0498 100.066 38.7786 99.385 38.3787C98.6229 37.9313 97.9797 37.3692 97.5419 36.5961C97.2784 36.1305 97.1014 35.6355 96.9866 35.114C96.75 34.0402 96.7472 32.9553 96.9384 31.8885C97.2374 30.2163 98.2234 29.0251 99.742 28.2309C101.074 27.5347 102.514 27.2648 103.982 27.0761C105.407 26.8929 106.84 26.9307 108.272 26.9279C109.157 26.9265 109.123 27.0159 109.084 26.1002C109.048 25.299 108.847 24.5342 108.413 23.838C107.892 23.0019 107.16 22.4566 106.179 22.3028C104.6 22.0567 103.061 22.2077 101.601 22.897C101.278 23.0494 101.004 23.2801 100.67 23.4185C99.9517 23.7149 99.2887 23.6045 98.8127 22.9935C98.2489 22.2678 98.0066 21.4275 98.0973 20.509C98.1214 20.2615 98.2489 20.0546 98.4019 19.8574C98.722 19.4464 99.1385 19.1472 99.5862 18.8997C100.411 18.4453 101.305 18.1643 102.223 17.9587C103.629 17.6428 105.053 17.5617 106.488 17.6623C107.677 17.7462 108.848 17.9545 109.936 18.4327C111.915 19.3038 113.365 20.7033 114.142 22.7334C114.501 23.6688 114.72 24.6251 114.787 25.6276C114.855 26.644 114.821 27.6577 114.834 28.6727C114.845 29.6221 114.837 30.5714 114.837 31.5208V31.5194ZM107.753 29.7871C106.991 29.8025 106.237 29.9115 105.482 29.9968C104.853 30.0681 104.263 30.2583 103.703 30.5435C103.16 30.8203 102.777 31.2439 102.635 31.8354C102.5 32.4002 102.513 32.9776 102.669 33.5397C102.811 34.0472 103.109 34.4569 103.595 34.7002C104.499 35.1518 105.42 35.1112 106.31 34.6904C107.284 34.2304 108.013 33.4866 108.566 32.5792C109.047 31.792 109.139 30.9196 109.089 30.022C109.081 29.8668 108.993 29.7899 108.827 29.7885C108.469 29.7857 108.112 29.7885 107.753 29.7885V29.7871Z" fill="#2F317A"/>
<path d="M65.7348 38.8162C63.4512 38.8162 61.1689 38.8162 58.8852 38.8162C58.7733 38.8162 58.6614 38.8204 58.5495 38.8134C57.623 38.7645 57.0592 38.2108 56.8778 37.3635C56.722 36.6309 56.8183 35.9136 57.249 35.2691C57.3227 35.1586 57.3793 35.037 57.4587 34.9307C58.218 33.8961 58.983 32.8657 59.7423 31.831C60.5427 30.7419 61.3418 29.6527 62.1407 28.5622C62.9128 27.508 63.6849 26.4566 64.4527 25.3996C65.0378 24.5928 65.6158 23.7819 66.1967 22.9724C66.2477 22.9011 66.2972 22.827 66.3383 22.7487C66.3978 22.6396 66.3383 22.511 66.2179 22.5026C66.0182 22.4872 65.8156 22.4774 65.6158 22.4774C63.6013 22.476 61.5868 22.4774 59.5723 22.4774C59.3938 22.4774 59.2125 22.4648 59.0354 22.4774C58.4078 22.5264 57.9672 22.2216 57.6102 21.7588C56.892 20.8276 56.9345 19.326 57.6995 18.4298C57.9729 18.1082 58.3157 17.9251 58.7436 17.9125C58.8782 17.9083 59.0127 17.9111 59.1459 17.9111C63.2868 17.9111 67.4277 17.9111 71.5687 17.9111C71.7925 17.9111 72.0163 17.9181 72.2402 17.9237C72.8706 17.939 73.6625 18.4913 73.756 19.3582C73.8566 20.3033 73.6257 21.1562 73.0732 21.9238C72.3875 22.8759 71.6905 23.821 70.9992 24.7704C70.203 25.8609 69.4125 26.9543 68.6121 28.042C67.4561 29.6108 66.293 31.1753 65.1342 32.7412C64.8579 33.1145 64.5845 33.492 64.3082 33.8667C64.2544 33.9408 64.2204 34.0247 64.2459 34.1128C64.287 34.2526 64.4159 34.2275 64.5207 34.2303C64.6992 34.2344 64.8792 34.2303 65.0577 34.2303C67.5652 34.2303 70.0712 34.2331 72.5787 34.2261C72.9683 34.2261 73.3367 34.2512 73.6526 34.5085C74.0252 34.8133 74.3 35.188 74.4247 35.6466C74.5522 36.1178 74.5777 36.6015 74.5097 37.0923C74.4346 37.6208 74.1838 38.0458 73.8169 38.4205C73.5704 38.6722 73.2715 38.798 72.9216 38.812C72.787 38.8176 72.6524 38.812 72.5192 38.812H65.7377V38.8148L65.7348 38.8162Z" fill="#2F317A"/>
<path d="M136.05 39.205C134.72 39.2175 133.411 39.054 132.143 38.6695C131.138 38.3647 130.161 37.9774 129.335 37.3021C128.955 36.9917 128.614 36.6617 128.393 36.2045C128.209 35.8214 128.16 35.4453 128.243 35.0483C128.342 34.5687 128.53 34.1255 128.821 33.7228C129.496 32.7861 130.215 32.7847 131.09 33.2447C131.287 33.3481 131.477 33.4712 131.648 33.611C132.12 33.9941 132.677 34.2276 133.219 34.4792C133.833 34.7644 134.499 34.8749 135.171 34.9029C135.752 34.9266 136.335 34.9182 136.917 34.9029C137.389 34.8917 137.848 34.7966 138.282 34.6037C138.902 34.3282 139.257 33.8403 139.414 33.2097C139.557 32.6351 139.193 31.8675 138.637 31.4928C137.982 31.0538 137.257 30.7685 136.505 30.549C135.455 30.2428 134.394 29.9716 133.35 29.6472C132.451 29.369 131.586 28.9943 130.831 28.4336C129.918 27.7555 129.187 26.9208 128.955 25.7799C128.619 24.1343 128.731 22.5334 129.569 21.0262C130.487 19.375 131.929 18.4019 133.741 17.9587C135.703 17.4791 137.683 17.5141 139.665 17.8944C140.26 18.009 140.841 18.153 141.415 18.339C142.038 18.5417 142.61 18.8339 143.129 19.2212C143.823 19.7371 144.079 20.2978 143.741 21.1856C143.535 21.7239 143.29 22.2356 142.867 22.6565C142.374 23.1458 141.823 23.3164 141.163 23.0591C140.602 22.841 140.042 22.6215 139.488 22.3866C138.346 21.9001 137.156 21.7924 135.938 21.9462C135.281 22.0287 134.7 22.3027 134.225 22.7781C133.379 23.624 133.646 24.7481 134.636 25.2403C135.239 25.5409 135.863 25.7632 136.516 25.9253C137.75 26.2315 138.994 26.5112 140.181 26.9754C140.997 27.2941 141.772 27.6898 142.443 28.2477C143.371 29.0181 144.036 29.952 144.275 31.1628C144.387 31.7291 144.461 32.2883 144.462 32.8644C144.466 34.0458 144.122 35.1266 143.497 36.1207C143.044 36.8421 142.422 37.4153 141.707 37.8767C140.5 38.6569 139.152 39.0302 137.724 39.1392C137.168 39.1812 136.607 39.1854 136.048 39.2064L136.05 39.205Z" fill="#2F317A"/>
<path d="M119.104 25.1311C119.104 21.3533 119.104 17.5755 119.104 13.7977C119.104 13.5992 119.098 13.3992 119.111 13.2021C119.14 12.7813 119.336 12.4387 119.67 12.1884C120.009 11.934 120.381 11.7354 120.808 11.6529C121.564 11.5075 122.319 11.5075 123.073 11.6613C123.475 11.7424 123.838 11.9116 124.165 12.1493C124.585 12.4541 124.827 12.8596 124.826 13.3881C124.826 13.5209 124.827 13.6537 124.827 13.7851C124.827 21.3183 124.827 28.8516 124.826 36.3848C124.826 36.54 124.823 36.6938 124.826 36.849C124.833 37.3243 124.623 37.6907 124.269 38.0011C123.456 38.7141 122.491 38.8791 121.451 38.7938C120.758 38.7379 120.162 38.4624 119.633 38.0234C119.306 37.7508 119.129 37.4124 119.105 36.993C119.097 36.8392 119.102 36.684 119.102 36.5288C119.102 32.7286 119.102 28.9285 119.102 25.1297H119.099L119.104 25.1311Z" fill="#2F317A"/>
</g>
<defs>
<clipPath id="clip0_1038_2598">
<rect width="153" height="56" fill="white"/>
</clipPath>
</defs>
</svg>
